<?xml version="1.0" encoding="UTF-8"?>
<svg xmlns="http://www.w3.org/2000/svg" xmlns:xlink="http://www.w3.org/1999/xlink" width="2500" height="2500" viewBox="0 0 2500 2500">
<defs>
<clipPath id="clip-0">
<path clip-rule="nonzero" d="M 1933.328125 685.921875 L 1952.671875 685.921875 L 1952.671875 705.269531 L 1933.328125 705.269531 Z M 428.523438 685.921875 L 447.875 685.921875 L 447.875 705.269531 L 428.523438 705.269531 Z M 547.324219 685.921875 L 566.675781 685.921875 L 566.675781 705.269531 L 547.324219 705.269531 Z M 1616.53125 685.921875 L 1635.878906 685.921875 L 1635.878906 705.269531 L 1616.53125 705.269531 Z M 1893.730469 685.921875 L 1913.078125 685.921875 L 1913.078125 705.269531 L 1893.730469 705.269531 Z M 1854.128906 685.921875 L 1873.46875 685.921875 L 1873.46875 705.269531 L 1854.128906 705.269531 Z M 1814.53125 685.921875 L 1833.878906 685.921875 L 1833.878906 705.269531 L 1814.53125 705.269531 Z M 1774.921875 685.921875 L 1794.269531 685.921875 L 1794.269531 705.269531 L 1774.921875 705.269531 Z M 1735.328125 685.921875 L 1754.671875 685.921875 L 1754.671875 705.269531 L 1735.328125 705.269531 Z M 1656.128906 685.921875 L 1675.46875 685.921875 L 1675.46875 705.269531 L 1656.128906 705.269531 Z M 1576.921875 685.921875 L 1596.269531 685.921875 L 1596.269531 705.269531 L 1576.921875 705.269531 Z M 1537.328125 685.921875 L 1556.671875 685.921875 L 1556.671875 705.269531 L 1537.328125 705.269531 Z M 1497.730469 685.921875 L 1517.078125 685.921875 L 1517.078125 705.269531 L 1497.730469 705.269531 Z M 1458.128906 685.921875 L 1477.46875 685.921875 L 1477.46875 705.269531 L 1458.128906 705.269531 Z M 745.324219 685.921875 L 764.675781 685.921875 L 764.675781 705.269531 L 745.324219 705.269531 Z M 705.726562 685.921875 L 725.074219 685.921875 L 725.074219 705.269531 L 705.726562 705.269531 Z M 666.125 685.921875 L 685.476562 685.921875 L 685.476562 705.269531 L 666.125 705.269531 Z M 626.523438 685.921875 L 645.875 685.921875 L 645.875 705.269531 L 626.523438 705.269531 Z M 586.925781 685.921875 L 606.273438 685.921875 L 606.273438 705.269531 L 586.925781 705.269531 Z M 507.726562 685.921875 L 527.074219 685.921875 L 527.074219 705.269531 L 507.726562 705.269531 Z M 468.125 685.921875 L 487.476562 685.921875 L 487.476562 705.269531 L 468.125 705.269531 Z M 1972.921875 685.921875 L 1992.269531 685.921875 L 1992.269531 705.269531 L 1972.921875 705.269531 Z M 1458.128906 725.519531 L 1477.46875 725.519531 L 1477.46875 744.871094 L 1458.128906 744.871094 Z M 468.125 725.519531 L 487.476562 725.519531 L 487.476562 744.871094 L 468.125 744.871094 Z M 1537.328125 725.519531 L 1556.671875 725.519531 L 1556.671875 744.871094 L 1537.328125 744.871094 Z M 1616.53125 725.519531 L 1635.878906 725.519531 L 1635.878906 744.871094 L 1616.53125 744.871094 Z M 1576.921875 725.519531 L 1596.269531 725.519531 L 1596.269531 744.871094 L 1576.921875 744.871094 Z M 705.726562 725.519531 L 725.074219 725.519531 L 725.074219 744.871094 L 705.726562 744.871094 Z M 1972.921875 725.519531 L 1992.269531 725.519531 L 1992.269531 744.871094 L 1972.921875 744.871094 Z M 1774.921875 725.519531 L 1794.269531 725.519531 L 1794.269531 744.871094 L 1774.921875 744.871094 Z M 428.523438 725.519531 L 447.875 725.519531 L 447.875 744.871094 L 428.523438 744.871094 Z M 1656.128906 725.519531 L 1675.46875 725.519531 L 1675.46875 744.871094 L 1656.128906 744.871094 Z M 1854.128906 725.519531 L 1873.46875 725.519531 L 1873.46875 744.871094 L 1854.128906 744.871094 Z M 1933.328125 725.519531 L 1952.671875 725.519531 L 1952.671875 744.871094 L 1933.328125 744.871094 Z M 1893.730469 725.519531 L 1913.078125 725.519531 L 1913.078125 744.871094 L 1893.730469 744.871094 Z M 745.324219 725.519531 L 764.675781 725.519531 L 764.675781 744.871094 L 745.324219 744.871094 Z M 666.125 725.519531 L 685.476562 725.519531 L 685.476562 744.871094 L 666.125 744.871094 Z M 626.523438 725.519531 L 645.875 725.519531 L 645.875 744.871094 L 626.523438 744.871094 Z M 586.925781 725.519531 L 606.273438 725.519531 L 606.273438 744.871094 L 586.925781 744.871094 Z M 547.324219 725.519531 L 566.675781 725.519531 L 566.675781 744.871094 L 547.324219 744.871094 Z M 507.726562 725.519531 L 527.074219 725.519531 L 527.074219 744.871094 L 507.726562 744.871094 Z M 1735.328125 725.519531 L 1754.671875 725.519531 L 1754.671875 744.871094 L 1735.328125 744.871094 Z M 1814.53125 725.519531 L 1833.878906 725.519531 L 1833.878906 744.871094 L 1814.53125 744.871094 Z M 1497.730469 725.519531 L 1517.078125 725.519531 L 1517.078125 744.871094 L 1497.730469 744.871094 Z M 1380.179688 766.371094 L 1397.019531 766.371094 L 1397.019531 783.21875 L 1380.179688 783.21875 Z M 666.398438 765.398438 L 685.203125 765.398438 L 685.203125 784.199219 L 666.398438 784.199219 Z M 1854.128906 765.121094 L 1873.46875 765.121094 L 1873.46875 784.46875 L 1854.128906 784.46875 Z M 111.726562 765.121094 L 131.074219 765.121094 L 131.074219 784.46875 L 111.726562 784.46875 Z M 270.125 765.121094 L 289.476562 765.121094 L 289.476562 784.46875 L 270.125 784.46875 Z M 309.726562 765.121094 L 329.074219 765.121094 L 329.074219 784.46875 L 309.726562 784.46875 Z M 388.925781 765.121094 L 408.273438 765.121094 L 408.273438 784.46875 L 388.925781 784.46875 Z M 1260.128906 765.121094 L 1279.46875 765.121094 L 1279.46875 784.46875 L 1260.128906 784.46875 Z M 1220.53125 765.121094 L 1239.878906 765.121094 L 1239.878906 784.46875 L 1220.53125 784.46875 Z M 190.925781 765.121094 L 210.273438 765.121094 L 210.273438 784.46875 L 190.925781 784.46875 Z M 1141.328125 765.121094 L 1160.671875 765.121094 L 1160.671875 784.46875 L 1141.328125 784.46875 Z M 745.324219 765.121094 L 764.675781 765.121094 L 764.675781 784.46875 L 745.324219 784.46875 Z M 428.523438 765.121094 L 447.875 765.121094 L 447.875 784.46875 L 428.523438 784.46875 Z M 230.523438 765.121094 L 249.875 765.121094 L 249.875 784.46875 L 230.523438 784.46875 Z M 1418.53125 765.121094 L 1437.878906 765.121094 L 1437.878906 784.46875 L 1418.53125 784.46875 Z M 1299.730469 765.121094 L 1319.078125 765.121094 L 1319.078125 784.46875 L 1299.730469 784.46875 Z M 1814.53125 765.121094 L 1833.878906 765.121094 L 1833.878906 784.46875 L 1814.53125 784.46875 Z M 1537.328125 765.121094 L 1556.671875 765.121094 L 1556.671875 784.46875 L 1537.328125 784.46875 Z M 507.726562 765.121094 L 527.074219 765.121094 L 527.074219 784.46875 L 507.726562 784.46875 Z M 1972.921875 765.121094 L 1992.269531 765.121094 L 1992.269531 784.46875 L 1972.921875 784.46875 Z M 2012.53125 765.121094 L 2031.878906 765.121094 L 2031.878906 784.46875 L 2012.53125 784.46875 Z M 349.324219 765.121094 L 368.675781 765.121094 L 368.675781 784.46875 L 349.324219 784.46875 Z M 2091.730469 765.121094 L 2111.078125 765.121094 L 2111.078125 784.46875 L 2091.730469 784.46875 Z M 2052.128906 765.121094 L 2071.46875 765.121094 L 2071.46875 784.46875 L 2052.128906 784.46875 Z M 2250.128906 765.121094 L 2269.46875 765.121094 L 2269.46875 784.46875 L 2250.128906 784.46875 Z M 1458.128906 765.121094 L 1477.46875 765.121094 L 1477.46875 784.46875 L 1458.128906 784.46875 Z M 1180.929688 765.121094 L 1200.269531 765.121094 L 1200.269531 784.46875 L 1180.929688 784.46875 Z M 151.324219 765.121094 L 170.675781 765.121094 L 170.675781 784.46875 L 151.324219 784.46875 Z M 1695.730469 765.121094 L 1715.078125 765.121094 L 1715.078125 784.46875 L 1695.730469 784.46875 Z M 1656.128906 765.121094 L 1675.46875 765.121094 L 1675.46875 784.46875 L 1656.128906 784.46875 Z M 1616.53125 765.121094 L 1635.878906 765.121094 L 1635.878906 784.46875 L 1616.53125 784.46875 Z M 1576.921875 765.121094 L 1596.269531 765.121094 L 1596.269531 784.46875 L 1576.921875 784.46875 Z M 468.125 765.121094 L 487.476562 765.121094 L 487.476562 784.46875 L 468.125 784.46875 Z M 1893.730469 765.121094 L 1913.078125 765.121094 L 1913.078125 784.46875 L 1893.730469 784.46875 Z M 2170.921875 765.121094 L 2190.269531 765.121094 L 2190.269531 784.46875 L 2170.921875 784.46875 Z M 2131.328125 765.121094 L 2150.671875 765.121094 L 2150.671875 784.46875 L 2131.328125 784.46875 Z M 2210.53125 765.121094 L 2229.878906 765.121094 L 2229.878906 784.46875 L 2210.53125 784.46875 Z M 1735.328125 765.121094 L 1754.671875 765.121094 L 1754.671875 784.46875 L 1735.328125 784.46875 Z M 1497.730469 765.121094 L 1517.078125 765.121094 L 1517.078125 784.46875 L 1497.730469 784.46875 Z M 626.523438 765.121094 L 645.875 765.121094 L 645.875 784.46875 L 626.523438 784.46875 Z M 1933.328125 765.121094 L 1952.671875 765.121094 L 1952.671875 784.46875 L 1933.328125 784.46875 Z M 1339.328125 765.121094 L 1358.671875 765.121094 L 1358.671875 784.46875 L 1339.328125 784.46875 Z M 1774.921875 765.121094 L 1794.269531 765.121094 L 1794.269531 784.46875 L 1774.921875 784.46875 Z M 586.925781 765.121094 L 606.273438 765.121094 L 606.273438 784.46875 L 586.925781 784.46875 Z M 547.324219 765.121094 L 566.675781 765.121094 L 566.675781 784.46875 L 547.324219 784.46875 Z M 587.304688 805.109375 L 605.894531 805.109375 L 605.894531 823.691406 L 587.304688 823.691406 Z M 626.90625 805.109375 L 645.492188 805.109375 L 645.492188 823.691406 L 626.90625 823.691406 Z M 2012.53125 804.71875 L 2031.878906 804.71875 L 2031.878906 824.070312 L 2012.53125 824.070312 Z M 745.324219 804.71875 L 764.675781 804.71875 L 764.675781 824.070312 L 745.324219 824.070312 Z M 1854.128906 804.71875 L 1873.46875 804.71875 L 1873.46875 824.070312 L 1854.128906 824.070312 Z M 1893.730469 804.71875 L 1913.078125 804.71875 L 1913.078125 824.070312 L 1893.730469 824.070312 Z M 2131.328125 804.71875 L 2150.671875 804.71875 L 2150.671875 824.070312 L 2131.328125 824.070312 Z M 2091.730469 804.71875 L 2111.078125 804.71875 L 2111.078125 824.070312 L 2091.730469 824.070312 Z M 1616.53125 804.71875 L 1635.878906 804.71875 L 1635.878906 824.070312 L 1616.53125 824.070312 Z M 1656.128906 804.71875 L 1675.46875 804.71875 L 1675.46875 824.070312 L 1656.128906 824.070312 Z M 1537.328125 804.71875 L 1556.671875 804.71875 L 1556.671875 824.070312 L 1537.328125 824.070312 Z M 2250.128906 804.71875 L 2269.46875 804.71875 L 2269.46875 824.070312 L 2250.128906 824.070312 Z M 1735.328125 804.71875 L 1754.671875 804.71875 L 1754.671875 824.070312 L 1735.328125 824.070312 Z M 1972.921875 804.71875 L 1992.269531 804.71875 L 1992.269531 824.070312 L 1972.921875 824.070312 Z M 2052.128906 804.71875 L 2071.46875 804.71875 L 2071.46875 824.070312 L 2052.128906 824.070312 Z M 1299.730469 804.71875 L 1319.078125 804.71875 L 1319.078125 824.070312 L 1299.730469 824.070312 Z M 1695.730469 804.71875 L 1715.078125 804.71875 L 1715.078125 824.070312 L 1695.730469 824.070312 Z M 1576.921875 804.71875 L 1596.269531 804.71875 L 1596.269531 824.070312 L 1576.921875 824.070312 Z M 1418.53125 804.71875 L 1437.878906 804.71875 L 1437.878906 824.070312 L 1418.53125 824.070312 Z M 428.523438 804.71875 L 447.875 804.71875 L 447.875 824.070312 L 428.523438 824.070312 Z M 230.523438 804.71875 L 249.875 804.71875 L 249.875 824.070312 L 230.523438 824.070312 Z M 32.527344 804.71875 L 51.875 804.71875 L 51.875 824.070312 L 32.527344 824.070312 Z M 547.324219 804.71875 L 566.675781 804.71875 L 566.675781 824.070312 L 547.324219 824.070312 Z M 1497.730469 804.71875 L 1517.078125 804.71875 L 1517.078125 824.070312 L 1497.730469 824.070312 Z M 190.925781 804.71875 L 210.273438 804.71875 L 210.273438 824.070312 L 190.925781 824.070312 Z M 468.125 804.71875 L 487.476562 804.71875 L 487.476562 824.070312 L 468.125 824.070312 Z M 309.726562 804.71875 L 329.074219 804.71875 L 329.074219 824.070312 L 309.726562 824.070312 Z M 666.125 804.71875 L 685.476562 804.71875 L 685.476562 824.070312 L 666.125 824.070312 Z M 507.726562 804.71875 L 527.074219 804.71875 L 527.074219 824.070312 L 507.726562 824.070312 Z M 2210.53125 804.71875 L 2229.878906 804.71875 L 2229.878906 824.070312 L 2210.53125 824.070312 Z M 388.925781 804.71875 L 408.273438 804.71875 L 408.273438 824.070312 L 388.925781 824.070312 Z M 349.324219 804.71875 L 368.675781 804.71875 L 368.675781 824.070312 L 349.324219 824.070312 Z M 270.125 804.71875 L 289.476562 804.71875 L 289.476562 824.070312 L 270.125 824.070312 Z M 705.726562 804.71875 L 725.074219 804.71875 L 725.074219 824.070312 L 705.726562 824.070312 Z M 151.324219 804.71875 L 170.675781 804.71875 L 170.675781 824.070312 L 151.324219 824.070312 Z M 111.726562 804.71875 L 131.074219 804.71875 L 131.074219 824.070312 L 111.726562 824.070312 Z M 1933.328125 804.71875 L 1952.671875 804.71875 L 1952.671875 824.070312 L 1933.328125 824.070312 Z M 2170.921875 804.71875 L 2190.269531 804.71875 L 2190.269531 824.070312 L 2170.921875 824.070312 Z M 1260.128906 804.71875 L 1279.46875 804.71875 L 1279.46875 824.070312 L 1260.128906 824.070312 Z M 1220.53125 804.71875 L 1239.878906 804.71875 L 1239.878906 824.070312 L 1220.53125 824.070312 Z M 1180.929688 804.71875 L 1200.269531 804.71875 L 1200.269531 824.070312 L 1180.929688 824.070312 Z M 1141.328125 804.71875 L 1160.671875 804.71875 L 1160.671875 824.070312 L 1141.328125 824.070312 Z M 1101.730469 804.71875 L 1121.070312 804.71875 L 1121.070312 824.070312 L 1101.730469 824.070312 Z M 1378.921875 804.71875 L 1398.269531 804.71875 L 1398.269531 824.070312 L 1378.921875 824.070312 Z M 1339.328125 804.71875 L 1358.671875 804.71875 L 1358.671875 824.070312 L 1339.328125 824.070312 Z M 1458.128906 804.71875 L 1477.46875 804.71875 L 1477.46875 824.070312 L 1458.128906 824.070312 Z M 1814.53125 804.71875 L 1833.878906 804.71875 L 1833.878906 824.070312 L 1814.53125 824.070312 Z M 1774.921875 804.71875 L 1794.269531 804.71875 L 1794.269531 824.070312 L 1774.921875 824.070312 Z M 72.125 804.71875 L 91.472656 804.71875 L 91.472656 824.070312 L 72.125 824.070312 Z M 388.925781 844.320312 L 408.273438 844.320312 L 408.273438 863.671875 L 388.925781 863.671875 Z M 428.523438 844.320312 L 447.875 844.320312 L 447.875 863.671875 L 428.523438 863.671875 Z M 468.125 844.320312 L 487.476562 844.320312 L 487.476562 863.671875 L 468.125 863.671875 Z M 72.125 844.320312 L 91.472656 844.320312 L 91.472656 863.671875 L 72.125 863.671875 Z M 151.324219 844.320312 L 170.675781 844.320312 L 170.675781 863.671875 L 151.324219 863.671875 Z M 111.726562 844.320312 L 131.074219 844.320312 L 131.074219 863.671875 L 111.726562 863.671875 Z M 666.125 844.320312 L 685.476562 844.320312 L 685.476562 863.671875 L 666.125 863.671875 Z M 626.523438 844.320312 L 645.875 844.320312 L 645.875 863.671875 L 626.523438 863.671875 Z M 547.324219 844.320312 L 566.675781 844.320312 L 566.675781 863.671875 L 547.324219 863.671875 Z M 507.726562 844.320312 L 527.074219 844.320312 L 527.074219 863.671875 L 507.726562 863.671875 Z M 190.925781 844.320312 L 210.273438 844.320312 L 210.273438 863.671875 L 190.925781 863.671875 Z M 705.726562 844.320312 L 725.074219 844.320312 L 725.074219 863.671875 L 705.726562 863.671875 Z M 1735.328125 844.320312 L 1754.671875 844.320312 L 1754.671875 863.671875 L 1735.328125 863.671875 Z M 1774.921875 844.320312 L 1794.269531 844.320312 L 1794.269531 863.671875 L 1774.921875 863.671875 Z M 1933.328125 844.320312 L 1952.671875 844.320312 L 1952.671875 863.671875 L 1933.328125 863.671875 Z M 32.527344 844.320312 L 51.875 844.320312 L 51.875 863.671875 L 32.527344 863.671875 Z M 1972.921875 844.320312 L 1992.269531 844.320312 L 1992.269531 863.671875 L 1972.921875 863.671875 Z M 2210.53125 844.320312 L 2229.878906 844.320312 L 2229.878906 863.671875 L 2210.53125 863.671875 Z M 2170.921875 844.320312 L 2190.269531 844.320312 L 2190.269531 863.671875 L 2170.921875 863.671875 Z M 2131.328125 844.320312 L 2150.671875 844.320312 L 2150.671875 863.671875 L 2131.328125 863.671875 Z M 2091.730469 844.320312 L 2111.078125 844.320312 L 2111.078125 863.671875 L 2091.730469 863.671875 Z M 2052.128906 844.320312 L 2071.46875 844.320312 L 2071.46875 863.671875 L 2052.128906 863.671875 Z M 1260.128906 844.320312 L 1279.46875 844.320312 L 1279.46875 863.671875 L 1260.128906 863.671875 Z M 1220.53125 844.320312 L 1239.878906 844.320312 L 1239.878906 863.671875 L 1220.53125 863.671875 Z M 1180.929688 844.320312 L 1200.269531 844.320312 L 1200.269531 863.671875 L 1180.929688 863.671875 Z M 1141.328125 844.320312 L 1160.671875 844.320312 L 1160.671875 863.671875 L 1141.328125 863.671875 Z M 1101.730469 844.320312 L 1121.070312 844.320312 L 1121.070312 863.671875 L 1101.730469 863.671875 Z M 1062.128906 844.320312 L 1081.46875 844.320312 L 1081.46875 863.671875 L 1062.128906 863.671875 Z M 1022.53125 844.320312 L 1041.878906 844.320312 L 1041.878906 863.671875 L 1022.53125 863.671875 Z M 1893.730469 844.320312 L 1913.078125 844.320312 L 1913.078125 863.671875 L 1893.730469 863.671875 Z M 1854.128906 844.320312 L 1873.46875 844.320312 L 1873.46875 863.671875 L 1854.128906 863.671875 Z M 1814.53125 844.320312 L 1833.878906 844.320312 L 1833.878906 863.671875 L 1814.53125 863.671875 Z M 2012.53125 844.320312 L 2031.878906 844.320312 L 2031.878906 863.671875 L 2012.53125 863.671875 Z M 1378.921875 844.320312 L 1398.269531 844.320312 L 1398.269531 863.671875 L 1378.921875 863.671875 Z M 1339.328125 844.320312 L 1358.671875 844.320312 L 1358.671875 863.671875 L 1339.328125 863.671875 Z M 1299.730469 844.320312 L 1319.078125 844.320312 L 1319.078125 863.671875 L 1299.730469 863.671875 Z M 230.523438 844.320312 L 249.875 844.320312 L 249.875 863.671875 L 230.523438 863.671875 Z M 1695.730469 844.320312 L 1715.078125 844.320312 L 1715.078125 863.671875 L 1695.730469 863.671875 Z M 1656.128906 844.320312 L 1675.46875 844.320312 L 1675.46875 863.671875 L 1656.128906 863.671875 Z M 1616.53125 844.320312 L 1635.878906 844.320312 L 1635.878906 863.671875 L 1616.53125 863.671875 Z M 1576.921875 844.320312 L 1596.269531 844.320312 L 1596.269531 863.671875 L 1576.921875 863.671875 Z M 1537.328125 844.320312 L 1556.671875 844.320312 L 1556.671875 863.671875 L 1537.328125 863.671875 Z M 1497.730469 844.320312 L 1517.078125 844.320312 L 1517.078125 863.671875 L 1497.730469 863.671875 Z M 1458.128906 844.320312 L 1477.46875 844.320312 L 1477.46875 863.671875 L 1458.128906 863.671875 Z M 1418.53125 844.320312 L 1437.878906 844.320312 L 1437.878906 863.671875 L 1418.53125 863.671875 Z M 270.125 844.320312 L 289.476562 844.320312 L 289.476562 863.671875 L 270.125 863.671875 Z M 309.726562 844.320312 L 329.074219 844.320312 L 329.074219 863.671875 L 309.726562 863.671875 Z M 349.324219 844.320312 L 368.675781 844.320312 L 368.675781 863.671875 L 349.324219 863.671875 Z M 191.523438 884.519531 L 209.675781 884.519531 L 209.675781 902.679688 L 191.523438 902.679688 Z M 1022.578125 883.980469 L 1041.820312 883.980469 L 1041.820312 903.21875 L 1022.578125 903.21875 Z M 982.980469 883.980469 L 1002.21875 883.980469 L 1002.21875 903.21875 L 982.980469 903.21875 Z M 507.726562 883.921875 L 527.074219 883.921875 L 527.074219 903.269531 L 507.726562 903.269531 Z M 1180.929688 883.921875 L 1200.269531 883.921875 L 1200.269531 903.269531 L 1180.929688 903.269531 Z M 1141.328125 883.921875 L 1160.671875 883.921875 L 1160.671875 903.269531 L 1141.328125 903.269531 Z M 547.324219 883.921875 L 566.675781 883.921875 L 566.675781 903.269531 L 547.324219 903.269531 Z M 626.523438 883.921875 L 645.875 883.921875 L 645.875 903.269531 L 626.523438 903.269531 Z M 1893.730469 883.921875 L 1913.078125 883.921875 L 1913.078125 903.269531 L 1893.730469 903.269531 Z M 309.726562 883.921875 L 329.074219 883.921875 L 329.074219 903.269531 L 309.726562 903.269531 Z M 468.125 883.921875 L 487.476562 883.921875 L 487.476562 903.269531 L 468.125 903.269531 Z M 270.125 883.921875 L 289.476562 883.921875 L 289.476562 903.269531 L 270.125 903.269531 Z M 2091.730469 883.921875 L 2111.078125 883.921875 L 2111.078125 903.269531 L 2091.730469 903.269531 Z M 666.125 883.921875 L 685.476562 883.921875 L 685.476562 903.269531 L 666.125 903.269531 Z M 586.925781 883.921875 L 606.273438 883.921875 L 606.273438 903.269531 L 586.925781 903.269531 Z M 1220.53125 883.921875 L 1239.878906 883.921875 L 1239.878906 903.269531 L 1220.53125 903.269531 Z M 230.523438 883.921875 L 249.875 883.921875 L 249.875 903.269531 L 230.523438 903.269531 Z M 1854.128906 883.921875 L 1873.46875 883.921875 L 1873.46875 903.269531 L 1854.128906 903.269531 Z M 1656.128906 883.921875 L 1675.46875 883.921875 L 1675.46875 903.269531 L 1656.128906 903.269531 Z M 705.726562 883.921875 L 725.074219 883.921875 L 725.074219 903.269531 L 705.726562 903.269531 Z M 1616.53125 883.921875 L 1635.878906 883.921875 L 1635.878906 903.269531 L 1616.53125 903.269531 Z M 1972.921875 883.921875 L 1992.269531 883.921875 L 1992.269531 903.269531 L 1972.921875 903.269531 Z M 428.523438 883.921875 L 447.875 883.921875 L 447.875 903.269531 L 428.523438 903.269531 Z M 388.925781 883.921875 L 408.273438 883.921875 L 408.273438 903.269531 L 388.925781 903.269531 Z M 349.324219 883.921875 L 368.675781 883.921875 L 368.675781 903.269531 L 349.324219 903.269531 Z M 1101.730469 883.921875 L 1121.070312 883.921875 L 1121.070312 903.269531 L 1101.730469 903.269531 Z M 1062.128906 883.921875 L 1081.46875 883.921875 L 1081.46875 903.269531 L 1062.128906 903.269531 Z M 1537.328125 883.921875 L 1556.671875 883.921875 L 1556.671875 903.269531 L 1537.328125 903.269531 Z M 2131.328125 883.921875 L 2150.671875 883.921875 L 2150.671875 903.269531 L 2131.328125 903.269531 Z M 2052.128906 883.921875 L 2071.46875 883.921875 L 2071.46875 903.269531 L 2052.128906 903.269531 Z M 745.324219 883.921875 L 764.675781 883.921875 L 764.675781 903.269531 L 745.324219 903.269531 Z M 2170.921875 883.921875 L 2190.269531 883.921875 L 2190.269531 903.269531 L 2170.921875 903.269531 Z M 1933.328125 883.921875 L 1952.671875 883.921875 L 1952.671875 903.269531 L 1933.328125 903.269531 Z M 2012.53125 883.921875 L 2031.878906 883.921875 L 2031.878906 903.269531 L 2012.53125 903.269531 Z M 1576.921875 883.921875 L 1596.269531 883.921875 L 1596.269531 903.269531 L 1576.921875 903.269531 Z M 1497.730469 883.921875 L 1517.078125 883.921875 L 1517.078125 903.269531 L 1497.730469 903.269531 Z M 1458.128906 883.921875 L 1477.46875 883.921875 L 1477.46875 903.269531 L 1458.128906 903.269531 Z M 1418.53125 883.921875 L 1437.878906 883.921875 L 1437.878906 903.269531 L 1418.53125 903.269531 Z M 1378.921875 883.921875 L 1398.269531 883.921875 L 1398.269531 903.269531 L 1378.921875 903.269531 Z M 1339.328125 883.921875 L 1358.671875 883.921875 L 1358.671875 903.269531 L 1339.328125 903.269531 Z M 1260.128906 883.921875 L 1279.46875 883.921875 L 1279.46875 903.269531 L 1260.128906 903.269531 Z M 1814.53125 883.921875 L 1833.878906 883.921875 L 1833.878906 903.269531 L 1814.53125 903.269531 Z M 1774.921875 883.921875 L 1794.269531 883.921875 L 1794.269531 903.269531 L 1774.921875 903.269531 Z M 1735.328125 883.921875 L 1754.671875 883.921875 L 1754.671875 903.269531 L 1735.328125 903.269531 Z M 1695.730469 883.921875 L 1715.078125 883.921875 L 1715.078125 903.269531 L 1695.730469 903.269531 Z M 1299.730469 883.921875 L 1319.078125 883.921875 L 1319.078125 903.269531 L 1299.730469 903.269531 Z M 2210.53125 883.921875 L 2229.878906 883.921875 L 2229.878906 903.269531 L 2210.53125 903.269531 Z M 2131.539062 923.738281 L 2150.460938 923.738281 L 2150.460938 942.660156 L 2131.539062 942.660156 Z M 428.523438 923.519531 L 447.875 923.519531 L 447.875 942.871094 L 428.523438 942.871094 Z M 388.925781 923.519531 L 408.273438 923.519531 L 408.273438 942.871094 L 388.925781 942.871094 Z M 1180.929688 923.519531 L 1200.269531 923.519531 L 1200.269531 942.871094 L 1180.929688 942.871094 Z M 1972.921875 923.519531 L 1992.269531 923.519531 L 1992.269531 942.871094 L 1972.921875 942.871094 Z M 626.523438 923.519531 L 645.875 923.519531 L 645.875 942.871094 L 626.523438 942.871094 Z M 586.925781 923.519531 L 606.273438 923.519531 L 606.273438 942.871094 L 586.925781 942.871094 Z M 1299.730469 923.519531 L 1319.078125 923.519531 L 1319.078125 942.871094 L 1299.730469 942.871094 Z M 1774.921875 923.519531 L 1794.269531 923.519531 L 1794.269531 942.871094 L 1774.921875 942.871094 Z M 1854.128906 923.519531 L 1873.46875 923.519531 L 1873.46875 942.871094 L 1854.128906 942.871094 Z M 1933.328125 923.519531 L 1952.671875 923.519531 L 1952.671875 942.871094 L 1933.328125 942.871094 Z M 2012.53125 923.519531 L 2031.878906 923.519531 L 2031.878906 942.871094 L 2012.53125 942.871094 Z M 2052.128906 923.519531 L 2071.46875 923.519531 L 2071.46875 942.871094 L 2052.128906 942.871094 Z M 2091.730469 923.519531 L 2111.078125 923.519531 L 2111.078125 942.871094 L 2091.730469 942.871094 Z M 1418.53125 923.519531 L 1437.878906 923.519531 L 1437.878906 942.871094 L 1418.53125 942.871094 Z M 1378.921875 923.519531 L 1398.269531 923.519531 L 1398.269531 942.871094 L 1378.921875 942.871094 Z M 1339.328125 923.519531 L 1358.671875 923.519531 L 1358.671875 942.871094 L 1339.328125 942.871094 Z M 1814.53125 923.519531 L 1833.878906 923.519531 L 1833.878906 942.871094 L 1814.53125 942.871094 Z M 270.125 923.519531 L 289.476562 923.519531 L 289.476562 942.871094 L 270.125 942.871094 Z M 230.523438 923.519531 L 249.875 923.519531 L 249.875 942.871094 L 230.523438 942.871094 Z M 309.726562 923.519531 L 329.074219 923.519531 L 329.074219 942.871094 L 309.726562 942.871094 Z M 468.125 923.519531 L 487.476562 923.519531 L 487.476562 942.871094 L 468.125 942.871094 Z M 1735.328125 923.519531 L 1754.671875 923.519531 L 1754.671875 942.871094 L 1735.328125 942.871094 Z M 1695.730469 923.519531 L 1715.078125 923.519531 L 1715.078125 942.871094 L 1695.730469 942.871094 Z M 1656.128906 923.519531 L 1675.46875 923.519531 L 1675.46875 942.871094 L 1656.128906 942.871094 Z M 1576.921875 923.519531 L 1596.269531 923.519531 L 1596.269531 942.871094 L 1576.921875 942.871094 Z M 349.324219 923.519531 L 368.675781 923.519531 L 368.675781 942.871094 L 349.324219 942.871094 Z M 1260.128906 923.519531 L 1279.46875 923.519531 L 1279.46875 942.871094 L 1260.128906 942.871094 Z M 1022.53125 923.519531 L 1041.878906 923.519531 L 1041.878906 942.871094 L 1022.53125 942.871094 Z M 507.726562 923.519531 L 527.074219 923.519531 L 527.074219 942.871094 L 507.726562 942.871094 Z M 547.324219 923.519531 L 566.675781 923.519531 L 566.675781 942.871094 L 547.324219 942.871094 Z M 1141.328125 923.519531 L 1160.671875 923.519531 L 1160.671875 942.871094 L 1141.328125 942.871094 Z M 1101.730469 923.519531 L 1121.070312 923.519531 L 1121.070312 942.871094 L 1101.730469 942.871094 Z M 1062.128906 923.519531 L 1081.46875 923.519531 L 1081.46875 942.871094 L 1062.128906 942.871094 Z M 1458.128906 923.519531 L 1477.46875 923.519531 L 1477.46875 942.871094 L 1458.128906 942.871094 Z M 745.324219 923.519531 L 764.675781 923.519531 L 764.675781 942.871094 L 745.324219 942.871094 Z M 705.726562 923.519531 L 725.074219 923.519531 L 725.074219 942.871094 L 705.726562 942.871094 Z M 666.125 923.519531 L 685.476562 923.519531 L 685.476562 942.871094 L 666.125 942.871094 Z M 1537.328125 923.519531 L 1556.671875 923.519531 L 1556.671875 942.871094 L 1537.328125 942.871094 Z M 1220.53125 923.519531 L 1239.878906 923.519531 L 1239.878906 942.871094 L 1220.53125 942.871094 Z M 1497.730469 923.519531 L 1517.078125 923.519531 L 1517.078125 942.871094 L 1497.730469 942.871094 Z M 1893.730469 923.519531 L 1913.078125 923.519531 L 1913.078125 942.871094 L 1893.730469 942.871094 Z M 1142.089844 963.890625 L 1159.910156 963.890625 L 1159.910156 981.710938 L 1142.089844 981.710938 Z M 2170.980469 963.179688 L 2190.21875 963.179688 L 2190.21875 982.421875 L 2170.980469 982.421875 Z M 2131.378906 963.179688 L 2150.621094 963.179688 L 2150.621094 982.421875 L 2131.378906 982.421875 Z M 270.125 963.121094 L 289.476562 963.121094 L 289.476562 982.46875 L 270.125 982.46875 Z M 547.324219 963.121094 L 566.675781 963.121094 L 566.675781 982.46875 L 547.324219 982.46875 Z M 1537.328125 963.121094 L 1556.671875 963.121094 L 1556.671875 982.46875 L 1537.328125 982.46875 Z M 1735.328125 963.121094 L 1754.671875 963.121094 L 1754.671875 982.46875 L 1735.328125 982.46875 Z M 666.125 963.121094 L 685.476562 963.121094 L 685.476562 982.46875 L 666.125 982.46875 Z M 507.726562 963.121094 L 527.074219 963.121094 L 527.074219 982.46875 L 507.726562 982.46875 Z M 349.324219 963.121094 L 368.675781 963.121094 L 368.675781 982.46875 L 349.324219 982.46875 Z M 388.925781 963.121094 L 408.273438 963.121094 L 408.273438 982.46875 L 388.925781 982.46875 Z M 190.925781 963.121094 L 210.273438 963.121094 L 210.273438 982.46875 L 190.925781 982.46875 Z M 468.125 963.121094 L 487.476562 963.121094 L 487.476562 982.46875 L 468.125 982.46875 Z M 1101.730469 963.121094 L 1121.070312 963.121094 L 1121.070312 982.46875 L 1101.730469 982.46875 Z M 1260.128906 963.121094 L 1279.46875 963.121094 L 1279.46875 982.46875 L 1260.128906 982.46875 Z M 1854.128906 963.121094 L 1873.46875 963.121094 L 1873.46875 982.46875 L 1854.128906 982.46875 Z M 586.925781 963.121094 L 606.273438 963.121094 L 606.273438 982.46875 L 586.925781 982.46875 Z M 1774.921875 963.121094 L 1794.269531 963.121094 L 1794.269531 982.46875 L 1774.921875 982.46875 Z M 1062.128906 963.121094 L 1081.46875 963.121094 L 1081.46875 982.46875 L 1062.128906 982.46875 Z M 1022.53125 963.121094 L 1041.878906 963.121094 L 1041.878906 982.46875 L 1022.53125 982.46875 Z M 982.925781 963.121094 L 1002.269531 963.121094 L 1002.269531 982.46875 L 982.925781 982.46875 Z M 705.726562 963.121094 L 725.074219 963.121094 L 725.074219 982.46875 L 705.726562 982.46875 Z M 1220.53125 963.121094 L 1239.878906 963.121094 L 1239.878906 982.46875 L 1220.53125 982.46875 Z M 1180.929688 963.121094 L 1200.269531 963.121094 L 1200.269531 982.46875 L 1180.929688 982.46875 Z M 309.726562 963.121094 L 329.074219 963.121094 L 329.074219 982.46875 L 309.726562 982.46875 Z M 1299.730469 963.121094 L 1319.078125 963.121094 L 1319.078125 982.46875 L 1299.730469 982.46875 Z M 2091.730469 963.121094 L 2111.078125 963.121094 L 2111.078125 982.46875 L 2091.730469 982.46875 Z M 1933.328125 963.121094 L 1952.671875 963.121094 L 1952.671875 982.46875 L 1933.328125 982.46875 Z M 1893.730469 963.121094 L 1913.078125 963.121094 L 1913.078125 982.46875 L 1893.730469 982.46875 Z M 1378.921875 963.121094 L 1398.269531 963.121094 L 1398.269531 982.46875 L 1378.921875 982.46875 Z M 1695.730469 963.121094 L 1715.078125 963.121094 L 1715.078125 982.46875 L 1695.730469 982.46875 Z M 1656.128906 963.121094 L 1675.46875 963.121094 L 1675.46875 982.46875 L 1656.128906 982.46875 Z M 1576.921875 963.121094 L 1596.269531 963.121094 L 1596.269531 982.46875 L 1576.921875 982.46875 Z M 1497.730469 963.121094 L 1517.078125 963.121094 L 1517.078125 982.46875 L 1497.730469 982.46875 Z M 1458.128906 963.121094 L 1477.46875 963.121094 L 1477.46875 982.46875 L 1458.128906 982.46875 Z M 1418.53125 963.121094 L 1437.878906 963.121094 L 1437.878906 982.46875 L 1418.53125 982.46875 Z M 2052.128906 963.121094 L 2071.46875 963.121094 L 2071.46875 982.46875 L 2052.128906 982.46875 Z M 2012.53125 963.121094 L 2031.878906 963.121094 L 2031.878906 982.46875 L 2012.53125 982.46875 Z M 1972.921875 963.121094 L 1992.269531 963.121094 L 1992.269531 982.46875 L 1972.921875 982.46875 Z M 626.523438 963.121094 L 645.875 963.121094 L 645.875 982.46875 L 626.523438 982.46875 Z M 1814.53125 963.121094 L 1833.878906 963.121094 L 1833.878906 982.46875 L 1814.53125 982.46875 Z M 1339.328125 963.121094 L 1358.671875 963.121094 L 1358.671875 982.46875 L 1339.328125 982.46875 Z M 428.523438 963.121094 L 447.875 963.121094 L 447.875 982.46875 L 428.523438 982.46875 Z M 230.523438 963.121094 L 249.875 963.121094 L 249.875 982.46875 L 230.523438 982.46875 Z M 1141.601562 1003 L 1160.398438 1003 L 1160.398438 1021.800781 L 1141.601562 1021.800781 Z M 1181.199219 1003 L 1200 1003 L 1200 1021.800781 L 1181.199219 1021.800781 Z M 1101.828125 1002.828125 L 1120.96875 1002.828125 L 1120.96875 1021.96875 L 1101.828125 1021.96875 Z M 1418.53125 1002.730469 L 1437.878906 1002.730469 L 1437.878906 1022.070312 L 1418.53125 1022.070312 Z M 309.726562 1002.730469 L 329.074219 1002.730469 L 329.074219 1022.070312 L 309.726562 1022.070312 Z M 1220.53125 1002.730469 L 1239.878906 1002.730469 L 1239.878906 1022.070312 L 1220.53125 1022.070312 Z M 349.324219 1002.730469 L 368.675781 1002.730469 L 368.675781 1022.070312 L 349.324219 1022.070312 Z M 270.125 1002.730469 L 289.476562 1002.730469 L 289.476562 1022.070312 L 270.125 1022.070312 Z M 547.324219 1002.730469 L 566.675781 1002.730469 L 566.675781 1022.070312 L 547.324219 1022.070312 Z M 190.925781 1002.730469 L 210.273438 1002.730469 L 210.273438 1022.070312 L 190.925781 1022.070312 Z M 507.726562 1002.730469 L 527.074219 1002.730469 L 527.074219 1022.070312 L 507.726562 1022.070312 Z M 230.523438 1002.730469 L 249.875 1002.730469 L 249.875 1022.070312 L 230.523438 1022.070312 Z M 1378.921875 1002.730469 L 1398.269531 1002.730469 L 1398.269531 1022.070312 L 1378.921875 1022.070312 Z M 1576.921875 1002.730469 L 1596.269531 1002.730469 L 1596.269531 1022.070312 L 1576.921875 1022.070312 Z M 1616.53125 1002.730469 L 1635.878906 1002.730469 L 1635.878906 1022.070312 L 1616.53125 1022.070312 Z M 1695.730469 1002.730469 L 1715.078125 1002.730469 L 1715.078125 1022.070312 L 1695.730469 1022.070312 Z M 1497.730469 1002.730469 L 1517.078125 1002.730469 L 1517.078125 1022.070312 L 1497.730469 1022.070312 Z M 388.925781 1002.730469 L 408.273438 1002.730469 L 408.273438 1022.070312 L 388.925781 1022.070312 Z M 2012.53125 1002.730469 L 2031.878906 1002.730469 L 2031.878906 1022.070312 L 2012.53125 1022.070312 Z M 1972.921875 1002.730469 L 1992.269531 1002.730469 L 1992.269531 1022.070312 L 1972.921875 1022.070312 Z M 1933.328125 1002.730469 L 1952.671875 1002.730469 L 1952.671875 1022.070312 L 1933.328125 1022.070312 Z M 1893.730469 1002.730469 L 1913.078125 1002.730469 L 1913.078125 1022.070312 L 1893.730469 1022.070312 Z M 1854.128906 1002.730469 L 1873.46875 1002.730469 L 1873.46875 1022.070312 L 1854.128906 1022.070312 Z M 1814.53125 1002.730469 L 1833.878906 1002.730469 L 1833.878906 1022.070312 L 1814.53125 1022.070312 Z M 1774.921875 1002.730469 L 1794.269531 1002.730469 L 1794.269531 1022.070312 L 1774.921875 1022.070312 Z M 1458.128906 1002.730469 L 1477.46875 1002.730469 L 1477.46875 1022.070312 L 1458.128906 1022.070312 Z M 428.523438 1002.730469 L 447.875 1002.730469 L 447.875 1022.070312 L 428.523438 1022.070312 Z M 1339.328125 1002.730469 L 1358.671875 1002.730469 L 1358.671875 1022.070312 L 1339.328125 1022.070312 Z M 1735.328125 1002.730469 L 1754.671875 1002.730469 L 1754.671875 1022.070312 L 1735.328125 1022.070312 Z M 1062.128906 1002.730469 L 1081.46875 1002.730469 L 1081.46875 1022.070312 L 1062.128906 1022.070312 Z M 468.125 1002.730469 L 487.476562 1002.730469 L 487.476562 1022.070312 L 468.125 1022.070312 Z M 2170.921875 1002.730469 L 2190.269531 1002.730469 L 2190.269531 1022.070312 L 2170.921875 1022.070312 Z M 2131.328125 1002.730469 L 2150.671875 1002.730469 L 2150.671875 1022.070312 L 2131.328125 1022.070312 Z M 2091.730469 1002.730469 L 2111.078125 1002.730469 L 2111.078125 1022.070312 L 2091.730469 1022.070312 Z M 2052.128906 1002.730469 L 2071.46875 1002.730469 L 2071.46875 1022.070312 L 2052.128906 1022.070312 Z M 1299.730469 1002.730469 L 1319.078125 1002.730469 L 1319.078125 1022.070312 L 1299.730469 1022.070312 Z M 1260.128906 1002.730469 L 1279.46875 1002.730469 L 1279.46875 1022.070312 L 1260.128906 1022.070312 Z M 1537.328125 1002.730469 L 1556.671875 1002.730469 L 1556.671875 1022.070312 L 1537.328125 1022.070312 Z M 982.925781 1002.730469 L 1002.269531 1002.730469 L 1002.269531 1022.070312 L 982.925781 1022.070312 Z M 586.925781 1002.730469 L 606.273438 1002.730469 L 606.273438 1022.070312 L 586.925781 1022.070312 Z M 1656.128906 1002.730469 L 1675.46875 1002.730469 L 1675.46875 1022.070312 L 1656.128906 1022.070312 Z M 1022.53125 1002.730469 L 1041.878906 1002.730469 L 1041.878906 1022.070312 L 1022.53125 1022.070312 Z M 1300.320312 1042.921875 L 1318.480469 1042.921875 L 1318.480469 1061.078125 L 1300.320312 1061.078125 Z M 1339.921875 1042.921875 L 1358.078125 1042.921875 L 1358.078125 1061.078125 L 1339.921875 1061.078125 Z M 1181.199219 1042.601562 L 1200 1042.601562 L 1200 1061.398438 L 1181.199219 1061.398438 Z M 468.125 1042.328125 L 487.476562 1042.328125 L 487.476562 1061.671875 L 468.125 1061.671875 Z M 1378.921875 1042.328125 L 1398.269531 1042.328125 L 1398.269531 1061.671875 L 1378.921875 1061.671875 Z M 1854.128906 1042.328125 L 1873.46875 1042.328125 L 1873.46875 1061.671875 L 1854.128906 1061.671875 Z M 1220.53125 1042.328125 L 1239.878906 1042.328125 L 1239.878906 1061.671875 L 1220.53125 1061.671875 Z M 1893.730469 1042.328125 L 1913.078125 1042.328125 L 1913.078125 1061.671875 L 1893.730469 1061.671875 Z M 1695.730469 1042.328125 L 1715.078125 1042.328125 L 1715.078125 1061.671875 L 1695.730469 1061.671875 Z M 1062.128906 1042.328125 L 1081.46875 1042.328125 L 1081.46875 1061.671875 L 1062.128906 1061.671875 Z M 1735.328125 1042.328125 L 1754.671875 1042.328125 L 1754.671875 1061.671875 L 1735.328125 1061.671875 Z M 1774.921875 1042.328125 L 1794.269531 1042.328125 L 1794.269531 1061.671875 L 1774.921875 1061.671875 Z M 309.726562 1042.328125 L 329.074219 1042.328125 L 329.074219 1061.671875 L 309.726562 1061.671875 Z M 190.925781 1042.328125 L 210.273438 1042.328125 L 210.273438 1061.671875 L 190.925781 1061.671875 Z M 507.726562 1042.328125 L 527.074219 1042.328125 L 527.074219 1061.671875 L 507.726562 1061.671875 Z M 1656.128906 1042.328125 L 1675.46875 1042.328125 L 1675.46875 1061.671875 L 1656.128906 1061.671875 Z M 1418.53125 1042.328125 L 1437.878906 1042.328125 L 1437.878906 1061.671875 L 1418.53125 1061.671875 Z M 1933.328125 1042.328125 L 1952.671875 1042.328125 L 1952.671875 1061.671875 L 1933.328125 1061.671875 Z M 982.925781 1042.328125 L 1002.269531 1042.328125 L 1002.269531 1061.671875 L 982.925781 1061.671875 Z M 230.523438 1042.328125 L 249.875 1042.328125 L 249.875 1061.671875 L 230.523438 1061.671875 Z M 547.324219 1042.328125 L 566.675781 1042.328125 L 566.675781 1061.671875 L 547.324219 1061.671875 Z M 1537.328125 1042.328125 L 1556.671875 1042.328125 L 1556.671875 1061.671875 L 1537.328125 1061.671875 Z M 1497.730469 1042.328125 L 1517.078125 1042.328125 L 1517.078125 1061.671875 L 1497.730469 1061.671875 Z M 1458.128906 1042.328125 L 1477.46875 1042.328125 L 1477.46875 1061.671875 L 1458.128906 1061.671875 Z M 428.523438 1042.328125 L 447.875 1042.328125 L 447.875 1061.671875 L 428.523438 1061.671875 Z M 2052.128906 1042.328125 L 2071.46875 1042.328125 L 2071.46875 1061.671875 L 2052.128906 1061.671875 Z M 2012.53125 1042.328125 L 2031.878906 1042.328125 L 2031.878906 1061.671875 L 2012.53125 1061.671875 Z M 1260.128906 1042.328125 L 1279.46875 1042.328125 L 1279.46875 1061.671875 L 1260.128906 1061.671875 Z M 1616.53125 1042.328125 L 1635.878906 1042.328125 L 1635.878906 1061.671875 L 1616.53125 1061.671875 Z M 1576.921875 1042.328125 L 1596.269531 1042.328125 L 1596.269531 1061.671875 L 1576.921875 1061.671875 Z M 270.125 1042.328125 L 289.476562 1042.328125 L 289.476562 1061.671875 L 270.125 1061.671875 Z M 1022.53125 1042.328125 L 1041.878906 1042.328125 L 1041.878906 1061.671875 L 1022.53125 1061.671875 Z M 1141.328125 1042.328125 L 1160.671875 1042.328125 L 1160.671875 1061.671875 L 1141.328125 1061.671875 Z M 1101.730469 1042.328125 L 1121.070312 1042.328125 L 1121.070312 1061.671875 L 1101.730469 1061.671875 Z M 1972.921875 1042.328125 L 1992.269531 1042.328125 L 1992.269531 1061.671875 L 1972.921875 1061.671875 Z M 2091.730469 1042.328125 L 2111.078125 1042.328125 L 2111.078125 1061.671875 L 2091.730469 1061.671875 Z M 1814.53125 1042.328125 L 1833.878906 1042.328125 L 1833.878906 1061.671875 L 1814.53125 1061.671875 Z M 2170.921875 1042.328125 L 2190.269531 1042.328125 L 2190.269531 1061.671875 L 2170.921875 1061.671875 Z M 2131.328125 1042.328125 L 2150.671875 1042.328125 L 2150.671875 1061.671875 L 2131.328125 1061.671875 Z M 349.324219 1042.328125 L 368.675781 1042.328125 L 368.675781 1061.671875 L 349.324219 1061.671875 Z M 388.925781 1042.328125 L 408.273438 1042.328125 L 408.273438 1061.671875 L 388.925781 1061.671875 Z M 1695.730469 1081.929688 L 1715.078125 1081.929688 L 1715.078125 1101.269531 L 1695.730469 1101.269531 Z M 1972.921875 1081.929688 L 1992.269531 1081.929688 L 1992.269531 1101.269531 L 1972.921875 1101.269531 Z M 230.523438 1081.929688 L 249.875 1081.929688 L 249.875 1101.269531 L 230.523438 1101.269531 Z M 309.726562 1081.929688 L 329.074219 1081.929688 L 329.074219 1101.269531 L 309.726562 1101.269531 Z M 388.925781 1081.929688 L 408.273438 1081.929688 L 408.273438 1101.269531 L 388.925781 1101.269531 Z M 349.324219 1081.929688 L 368.675781 1081.929688 L 368.675781 1101.269531 L 349.324219 1101.269531 Z M 270.125 1081.929688 L 289.476562 1081.929688 L 289.476562 1101.269531 L 270.125 1101.269531 Z M 2052.128906 1081.929688 L 2071.46875 1081.929688 L 2071.46875 1101.269531 L 2052.128906 1101.269531 Z M 2012.53125 1081.929688 L 2031.878906 1081.929688 L 2031.878906 1101.269531 L 2012.53125 1101.269531 Z M 190.925781 1081.929688 L 210.273438 1081.929688 L 210.273438 1101.269531 L 190.925781 1101.269531 Z M 1101.730469 1081.929688 L 1121.070312 1081.929688 L 1121.070312 1101.269531 L 1101.730469 1101.269531 Z M 1458.128906 1081.929688 L 1477.46875 1081.929688 L 1477.46875 1101.269531 L 1458.128906 1101.269531 Z M 1418.53125 1081.929688 L 1437.878906 1081.929688 L 1437.878906 1101.269531 L 1418.53125 1101.269531 Z M 1378.921875 1081.929688 L 1398.269531 1081.929688 L 1398.269531 1101.269531 L 1378.921875 1101.269531 Z M 1339.328125 1081.929688 L 1358.671875 1081.929688 L 1358.671875 1101.269531 L 1339.328125 1101.269531 Z M 1299.730469 1081.929688 L 1319.078125 1081.929688 L 1319.078125 1101.269531 L 1299.730469 1101.269531 Z M 1537.328125 1081.929688 L 1556.671875 1081.929688 L 1556.671875 1101.269531 L 1537.328125 1101.269531 Z M 1497.730469 1081.929688 L 1517.078125 1081.929688 L 1517.078125 1101.269531 L 1497.730469 1101.269531 Z M 2091.730469 1081.929688 L 2111.078125 1081.929688 L 2111.078125 1101.269531 L 2091.730469 1101.269531 Z M 1735.328125 1081.929688 L 1754.671875 1081.929688 L 1754.671875 1101.269531 L 1735.328125 1101.269531 Z M 428.523438 1081.929688 L 447.875 1081.929688 L 447.875 1101.269531 L 428.523438 1101.269531 Z M 507.726562 1081.929688 L 527.074219 1081.929688 L 527.074219 1101.269531 L 507.726562 1101.269531 Z M 1260.128906 1081.929688 L 1279.46875 1081.929688 L 1279.46875 1101.269531 L 1260.128906 1101.269531 Z M 1220.53125 1081.929688 L 1239.878906 1081.929688 L 1239.878906 1101.269531 L 1220.53125 1101.269531 Z M 1180.929688 1081.929688 L 1200.269531 1081.929688 L 1200.269531 1101.269531 L 1180.929688 1101.269531 Z M 1141.328125 1081.929688 L 1160.671875 1081.929688 L 1160.671875 1101.269531 L 1141.328125 1101.269531 Z M 1062.128906 1081.929688 L 1081.46875 1081.929688 L 1081.46875 1101.269531 L 1062.128906 1101.269531 Z M 1022.53125 1081.929688 L 1041.878906 1081.929688 L 1041.878906 1101.269531 L 1022.53125 1101.269531 Z M 982.925781 1081.929688 L 1002.269531 1081.929688 L 1002.269531 1101.269531 L 982.925781 1101.269531 Z M 943.324219 1081.929688 L 962.675781 1081.929688 L 962.675781 1101.269531 L 943.324219 1101.269531 Z M 468.125 1081.929688 L 487.476562 1081.929688 L 487.476562 1101.269531 L 468.125 1101.269531 Z M 1933.328125 1081.929688 L 1952.671875 1081.929688 L 1952.671875 1101.269531 L 1933.328125 1101.269531 Z M 1893.730469 1081.929688 L 1913.078125 1081.929688 L 1913.078125 1101.269531 L 1893.730469 1101.269531 Z M 1854.128906 1081.929688 L 1873.46875 1081.929688 L 1873.46875 1101.269531 L 1854.128906 1101.269531 Z M 1814.53125 1081.929688 L 1833.878906 1081.929688 L 1833.878906 1101.269531 L 1814.53125 1101.269531 Z M 1774.921875 1081.929688 L 1794.269531 1081.929688 L 1794.269531 1101.269531 L 1774.921875 1101.269531 Z M 1576.921875 1081.929688 L 1596.269531 1081.929688 L 1596.269531 1101.269531 L 1576.921875 1101.269531 Z M 1656.128906 1081.929688 L 1675.46875 1081.929688 L 1675.46875 1101.269531 L 1656.128906 1101.269531 Z M 1616.53125 1081.929688 L 1635.878906 1081.929688 L 1635.878906 1101.269531 L 1616.53125 1101.269531 Z M 230.523438 1121.53125 L 249.875 1121.53125 L 249.875 1140.878906 L 230.523438 1140.878906 Z M 1576.921875 1121.53125 L 1596.269531 1121.53125 L 1596.269531 1140.878906 L 1576.921875 1140.878906 Z M 982.925781 1121.53125 L 1002.269531 1121.53125 L 1002.269531 1140.878906 L 982.925781 1140.878906 Z M 468.125 1121.53125 L 487.476562 1121.53125 L 487.476562 1140.878906 L 468.125 1140.878906 Z M 270.125 1121.53125 L 289.476562 1121.53125 L 289.476562 1140.878906 L 270.125 1140.878906 Z M 190.925781 1121.53125 L 210.273438 1121.53125 L 210.273438 1140.878906 L 190.925781 1140.878906 Z M 309.726562 1121.53125 L 329.074219 1121.53125 L 329.074219 1140.878906 L 309.726562 1140.878906 Z M 1101.730469 1121.53125 L 1121.070312 1121.53125 L 1121.070312 1140.878906 L 1101.730469 1140.878906 Z M 1141.328125 1121.53125 L 1160.671875 1121.53125 L 1160.671875 1140.878906 L 1141.328125 1140.878906 Z M 1062.128906 1121.53125 L 1081.46875 1121.53125 L 1081.46875 1140.878906 L 1062.128906 1140.878906 Z M 1695.730469 1121.53125 L 1715.078125 1121.53125 L 1715.078125 1140.878906 L 1695.730469 1140.878906 Z M 1854.128906 1121.53125 L 1873.46875 1121.53125 L 1873.46875 1140.878906 L 1854.128906 1140.878906 Z M 349.324219 1121.53125 L 368.675781 1121.53125 L 368.675781 1140.878906 L 349.324219 1140.878906 Z M 1814.53125 1121.53125 L 1833.878906 1121.53125 L 1833.878906 1140.878906 L 1814.53125 1140.878906 Z M 1774.921875 1121.53125 L 1794.269531 1121.53125 L 1794.269531 1140.878906 L 1774.921875 1140.878906 Z M 1735.328125 1121.53125 L 1754.671875 1121.53125 L 1754.671875 1140.878906 L 1735.328125 1140.878906 Z M 2012.53125 1121.53125 L 2031.878906 1121.53125 L 2031.878906 1140.878906 L 2012.53125 1140.878906 Z M 1972.921875 1121.53125 L 1992.269531 1121.53125 L 1992.269531 1140.878906 L 1972.921875 1140.878906 Z M 1933.328125 1121.53125 L 1952.671875 1121.53125 L 1952.671875 1140.878906 L 1933.328125 1140.878906 Z M 1893.730469 1121.53125 L 1913.078125 1121.53125 L 1913.078125 1140.878906 L 1893.730469 1140.878906 Z M 2052.128906 1121.53125 L 2071.46875 1121.53125 L 2071.46875 1140.878906 L 2052.128906 1140.878906 Z M 1656.128906 1121.53125 L 1675.46875 1121.53125 L 1675.46875 1140.878906 L 1656.128906 1140.878906 Z M 1616.53125 1121.53125 L 1635.878906 1121.53125 L 1635.878906 1140.878906 L 1616.53125 1140.878906 Z M 1458.128906 1121.53125 L 1477.46875 1121.53125 L 1477.46875 1140.878906 L 1458.128906 1140.878906 Z M 1418.53125 1121.53125 L 1437.878906 1121.53125 L 1437.878906 1140.878906 L 1418.53125 1140.878906 Z M 1378.921875 1121.53125 L 1398.269531 1121.53125 L 1398.269531 1140.878906 L 1378.921875 1140.878906 Z M 1339.328125 1121.53125 L 1358.671875 1121.53125 L 1358.671875 1140.878906 L 1339.328125 1140.878906 Z M 1299.730469 1121.53125 L 1319.078125 1121.53125 L 1319.078125 1140.878906 L 1299.730469 1140.878906 Z M 1260.128906 1121.53125 L 1279.46875 1121.53125 L 1279.46875 1140.878906 L 1260.128906 1140.878906 Z M 1220.53125 1121.53125 L 1239.878906 1121.53125 L 1239.878906 1140.878906 L 1220.53125 1140.878906 Z M 1180.929688 1121.53125 L 1200.269531 1121.53125 L 1200.269531 1140.878906 L 1180.929688 1140.878906 Z M 1537.328125 1121.53125 L 1556.671875 1121.53125 L 1556.671875 1140.878906 L 1537.328125 1140.878906 Z M 1497.730469 1121.53125 L 1517.078125 1121.53125 L 1517.078125 1140.878906 L 1497.730469 1140.878906 Z M 1022.53125 1121.53125 L 1041.878906 1121.53125 L 1041.878906 1140.878906 L 1022.53125 1140.878906 Z M 943.324219 1121.53125 L 962.675781 1121.53125 L 962.675781 1140.878906 L 943.324219 1140.878906 Z M 903.726562 1121.53125 L 923.074219 1121.53125 L 923.074219 1140.878906 L 903.726562 1140.878906 Z M 1497.730469 1161.128906 L 1517.078125 1161.128906 L 1517.078125 1180.46875 L 1497.730469 1180.46875 Z M 270.125 1161.128906 L 289.476562 1161.128906 L 289.476562 1180.46875 L 270.125 1180.46875 Z M 1458.128906 1161.128906 L 1477.46875 1161.128906 L 1477.46875 1180.46875 L 1458.128906 1180.46875 Z M 943.324219 1161.128906 L 962.675781 1161.128906 L 962.675781 1180.46875 L 943.324219 1180.46875 Z M 1378.921875 1161.128906 L 1398.269531 1161.128906 L 1398.269531 1180.46875 L 1378.921875 1180.46875 Z M 1339.328125 1161.128906 L 1358.671875 1161.128906 L 1358.671875 1180.46875 L 1339.328125 1180.46875 Z M 1299.730469 1161.128906 L 1319.078125 1161.128906 L 1319.078125 1180.46875 L 1299.730469 1180.46875 Z M 1260.128906 1161.128906 L 1279.46875 1161.128906 L 1279.46875 1180.46875 L 1260.128906 1180.46875 Z M 1220.53125 1161.128906 L 1239.878906 1161.128906 L 1239.878906 1180.46875 L 1220.53125 1180.46875 Z M 1180.929688 1161.128906 L 1200.269531 1161.128906 L 1200.269531 1180.46875 L 1180.929688 1180.46875 Z M 1141.328125 1161.128906 L 1160.671875 1161.128906 L 1160.671875 1180.46875 L 1141.328125 1180.46875 Z M 1101.730469 1161.128906 L 1121.070312 1161.128906 L 1121.070312 1180.46875 L 1101.730469 1180.46875 Z M 1062.128906 1161.128906 L 1081.46875 1161.128906 L 1081.46875 1180.46875 L 1062.128906 1180.46875 Z M 1022.53125 1161.128906 L 1041.878906 1161.128906 L 1041.878906 1180.46875 L 1022.53125 1180.46875 Z M 982.925781 1161.128906 L 1002.269531 1161.128906 L 1002.269531 1180.46875 L 982.925781 1180.46875 Z M 903.726562 1161.128906 L 923.074219 1161.128906 L 923.074219 1180.46875 L 903.726562 1180.46875 Z M 428.523438 1161.128906 L 447.875 1161.128906 L 447.875 1180.46875 L 428.523438 1180.46875 Z M 388.925781 1161.128906 L 408.273438 1161.128906 L 408.273438 1180.46875 L 388.925781 1180.46875 Z M 349.324219 1161.128906 L 368.675781 1161.128906 L 368.675781 1180.46875 L 349.324219 1180.46875 Z M 309.726562 1161.128906 L 329.074219 1161.128906 L 329.074219 1180.46875 L 309.726562 1180.46875 Z M 1695.730469 1161.128906 L 1715.078125 1161.128906 L 1715.078125 1180.46875 L 1695.730469 1180.46875 Z M 1656.128906 1161.128906 L 1675.46875 1161.128906 L 1675.46875 1180.46875 L 1656.128906 1180.46875 Z M 1933.328125 1161.128906 L 1952.671875 1161.128906 L 1952.671875 1180.46875 L 1933.328125 1180.46875 Z M 1972.921875 1161.128906 L 1992.269531 1161.128906 L 1992.269531 1180.46875 L 1972.921875 1180.46875 Z M 1418.53125 1161.128906 L 1437.878906 1161.128906 L 1437.878906 1180.46875 L 1418.53125 1180.46875 Z M 1735.328125 1161.128906 L 1754.671875 1161.128906 L 1754.671875 1180.46875 L 1735.328125 1180.46875 Z M 1854.128906 1161.128906 L 1873.46875 1161.128906 L 1873.46875 1180.46875 L 1854.128906 1180.46875 Z M 1537.328125 1161.128906 L 1556.671875 1161.128906 L 1556.671875 1180.46875 L 1537.328125 1180.46875 Z M 1616.53125 1161.128906 L 1635.878906 1161.128906 L 1635.878906 1180.46875 L 1616.53125 1180.46875 Z M 2012.53125 1161.128906 L 2031.878906 1161.128906 L 2031.878906 1180.46875 L 2012.53125 1180.46875 Z M 1814.53125 1161.128906 L 1833.878906 1161.128906 L 1833.878906 1180.46875 L 1814.53125 1180.46875 Z M 1774.921875 1161.128906 L 1794.269531 1161.128906 L 1794.269531 1180.46875 L 1774.921875 1180.46875 Z M 1893.730469 1161.128906 L 1913.078125 1161.128906 L 1913.078125 1180.46875 L 1893.730469 1180.46875 Z M 428.523438 1200.730469 L 447.875 1200.730469 L 447.875 1220.070312 L 428.523438 1220.070312 Z M 1141.328125 1200.730469 L 1160.671875 1200.730469 L 1160.671875 1220.070312 L 1141.328125 1220.070312 Z M 1299.730469 1200.730469 L 1319.078125 1200.730469 L 1319.078125 1220.070312 L 1299.730469 1220.070312 Z M 270.125 1200.730469 L 289.476562 1200.730469 L 289.476562 1220.070312 L 270.125 1220.070312 Z M 1537.328125 1200.730469 L 1556.671875 1200.730469 L 1556.671875 1220.070312 L 1537.328125 1220.070312 Z M 1497.730469 1200.730469 L 1517.078125 1200.730469 L 1517.078125 1220.070312 L 1497.730469 1220.070312 Z M 1458.128906 1200.730469 L 1477.46875 1200.730469 L 1477.46875 1220.070312 L 1458.128906 1220.070312 Z M 1418.53125 1200.730469 L 1437.878906 1200.730469 L 1437.878906 1220.070312 L 1418.53125 1220.070312 Z M 1378.921875 1200.730469 L 1398.269531 1200.730469 L 1398.269531 1220.070312 L 1378.921875 1220.070312 Z M 1339.328125 1200.730469 L 1358.671875 1200.730469 L 1358.671875 1220.070312 L 1339.328125 1220.070312 Z M 1260.128906 1200.730469 L 1279.46875 1200.730469 L 1279.46875 1220.070312 L 1260.128906 1220.070312 Z M 1022.53125 1200.730469 L 1041.878906 1200.730469 L 1041.878906 1220.070312 L 1022.53125 1220.070312 Z M 1972.921875 1200.730469 L 1992.269531 1200.730469 L 1992.269531 1220.070312 L 1972.921875 1220.070312 Z M 903.726562 1200.730469 L 923.074219 1200.730469 L 923.074219 1220.070312 L 903.726562 1220.070312 Z M 1933.328125 1200.730469 L 1952.671875 1200.730469 L 1952.671875 1220.070312 L 1933.328125 1220.070312 Z M 1893.730469 1200.730469 L 1913.078125 1200.730469 L 1913.078125 1220.070312 L 1893.730469 1220.070312 Z M 1854.128906 1200.730469 L 1873.46875 1200.730469 L 1873.46875 1220.070312 L 1854.128906 1220.070312 Z M 1814.53125 1200.730469 L 1833.878906 1200.730469 L 1833.878906 1220.070312 L 1814.53125 1220.070312 Z M 1735.328125 1200.730469 L 1754.671875 1200.730469 L 1754.671875 1220.070312 L 1735.328125 1220.070312 Z M 1695.730469 1200.730469 L 1715.078125 1200.730469 L 1715.078125 1220.070312 L 1695.730469 1220.070312 Z M 1656.128906 1200.730469 L 1675.46875 1200.730469 L 1675.46875 1220.070312 L 1656.128906 1220.070312 Z M 309.726562 1200.730469 L 329.074219 1200.730469 L 329.074219 1220.070312 L 309.726562 1220.070312 Z M 982.925781 1200.730469 L 1002.269531 1200.730469 L 1002.269531 1220.070312 L 982.925781 1220.070312 Z M 943.324219 1200.730469 L 962.675781 1200.730469 L 962.675781 1220.070312 L 943.324219 1220.070312 Z M 349.324219 1200.730469 L 368.675781 1200.730469 L 368.675781 1220.070312 L 349.324219 1220.070312 Z M 1062.128906 1200.730469 L 1081.46875 1200.730469 L 1081.46875 1220.070312 L 1062.128906 1220.070312 Z M 1220.53125 1200.730469 L 1239.878906 1200.730469 L 1239.878906 1220.070312 L 1220.53125 1220.070312 Z M 1180.929688 1200.730469 L 1200.269531 1200.730469 L 1200.269531 1220.070312 L 1180.929688 1220.070312 Z M 1101.730469 1200.730469 L 1121.070312 1200.730469 L 1121.070312 1220.070312 L 1101.730469 1220.070312 Z M 388.925781 1200.730469 L 408.273438 1200.730469 L 408.273438 1220.070312 L 388.925781 1220.070312 Z M 1735.378906 1240.378906 L 1754.621094 1240.378906 L 1754.621094 1259.621094 L 1735.378906 1259.621094 Z M 1418.53125 1240.328125 L 1437.878906 1240.328125 L 1437.878906 1259.671875 L 1418.53125 1259.671875 Z M 468.125 1240.328125 L 487.476562 1240.328125 L 487.476562 1259.671875 L 468.125 1259.671875 Z M 982.925781 1240.328125 L 1002.269531 1240.328125 L 1002.269531 1259.671875 L 982.925781 1259.671875 Z M 626.523438 1240.328125 L 645.875 1240.328125 L 645.875 1259.671875 L 626.523438 1259.671875 Z M 388.925781 1240.328125 L 408.273438 1240.328125 L 408.273438 1259.671875 L 388.925781 1259.671875 Z M 428.523438 1240.328125 L 447.875 1240.328125 L 447.875 1259.671875 L 428.523438 1259.671875 Z M 1101.730469 1240.328125 L 1121.070312 1240.328125 L 1121.070312 1259.671875 L 1101.730469 1259.671875 Z M 1062.128906 1240.328125 L 1081.46875 1240.328125 L 1081.46875 1259.671875 L 1062.128906 1259.671875 Z M 1022.53125 1240.328125 L 1041.878906 1240.328125 L 1041.878906 1259.671875 L 1022.53125 1259.671875 Z M 547.324219 1240.328125 L 566.675781 1240.328125 L 566.675781 1259.671875 L 547.324219 1259.671875 Z M 1141.328125 1240.328125 L 1160.671875 1240.328125 L 1160.671875 1259.671875 L 1141.328125 1259.671875 Z M 1339.328125 1240.328125 L 1358.671875 1240.328125 L 1358.671875 1259.671875 L 1339.328125 1259.671875 Z M 1180.929688 1240.328125 L 1200.269531 1240.328125 L 1200.269531 1259.671875 L 1180.929688 1259.671875 Z M 1656.128906 1240.328125 L 1675.46875 1240.328125 L 1675.46875 1259.671875 L 1656.128906 1259.671875 Z M 1695.730469 1240.328125 L 1715.078125 1240.328125 L 1715.078125 1259.671875 L 1695.730469 1259.671875 Z M 586.925781 1240.328125 L 606.273438 1240.328125 L 606.273438 1259.671875 L 586.925781 1259.671875 Z M 1378.921875 1240.328125 L 1398.269531 1240.328125 L 1398.269531 1259.671875 L 1378.921875 1259.671875 Z M 1458.128906 1240.328125 L 1477.46875 1240.328125 L 1477.46875 1259.671875 L 1458.128906 1259.671875 Z M 903.726562 1240.328125 L 923.074219 1240.328125 L 923.074219 1259.671875 L 903.726562 1259.671875 Z M 1972.921875 1240.328125 L 1992.269531 1240.328125 L 1992.269531 1259.671875 L 1972.921875 1259.671875 Z M 1933.328125 1240.328125 L 1952.671875 1240.328125 L 1952.671875 1259.671875 L 1933.328125 1259.671875 Z M 1893.730469 1240.328125 L 1913.078125 1240.328125 L 1913.078125 1259.671875 L 1893.730469 1259.671875 Z M 1854.128906 1240.328125 L 1873.46875 1240.328125 L 1873.46875 1259.671875 L 1854.128906 1259.671875 Z M 1299.730469 1240.328125 L 1319.078125 1240.328125 L 1319.078125 1259.671875 L 1299.730469 1259.671875 Z M 507.726562 1240.328125 L 527.074219 1240.328125 L 527.074219 1259.671875 L 507.726562 1259.671875 Z M 1220.53125 1240.328125 L 1239.878906 1240.328125 L 1239.878906 1259.671875 L 1220.53125 1259.671875 Z M 1260.128906 1240.328125 L 1279.46875 1240.328125 L 1279.46875 1259.671875 L 1260.128906 1259.671875 Z M 943.324219 1240.328125 L 962.675781 1240.328125 L 962.675781 1259.671875 L 943.324219 1259.671875 Z M 1735.378906 1279.980469 L 1754.621094 1279.980469 L 1754.621094 1299.21875 L 1735.378906 1299.21875 Z M 705.726562 1279.921875 L 725.074219 1279.921875 L 725.074219 1299.269531 L 705.726562 1299.269531 Z M 1299.730469 1279.921875 L 1319.078125 1279.921875 L 1319.078125 1299.269531 L 1299.730469 1299.269531 Z M 1854.128906 1279.921875 L 1873.46875 1279.921875 L 1873.46875 1299.269531 L 1854.128906 1299.269531 Z M 1378.921875 1279.921875 L 1398.269531 1279.921875 L 1398.269531 1299.269531 L 1378.921875 1299.269531 Z M 2052.128906 1279.921875 L 2071.46875 1279.921875 L 2071.46875 1299.269531 L 2052.128906 1299.269531 Z M 666.125 1279.921875 L 685.476562 1279.921875 L 685.476562 1299.269531 L 666.125 1299.269531 Z M 2012.53125 1279.921875 L 2031.878906 1279.921875 L 2031.878906 1299.269531 L 2012.53125 1299.269531 Z M 1933.328125 1279.921875 L 1952.671875 1279.921875 L 1952.671875 1299.269531 L 1933.328125 1299.269531 Z M 1893.730469 1279.921875 L 1913.078125 1279.921875 L 1913.078125 1299.269531 L 1893.730469 1299.269531 Z M 428.523438 1279.921875 L 447.875 1279.921875 L 447.875 1299.269531 L 428.523438 1299.269531 Z M 507.726562 1279.921875 L 527.074219 1279.921875 L 527.074219 1299.269531 L 507.726562 1299.269531 Z M 626.523438 1279.921875 L 645.875 1279.921875 L 645.875 1299.269531 L 626.523438 1299.269531 Z M 1339.328125 1279.921875 L 1358.671875 1279.921875 L 1358.671875 1299.269531 L 1339.328125 1299.269531 Z M 1260.128906 1279.921875 L 1279.46875 1279.921875 L 1279.46875 1299.269531 L 1260.128906 1299.269531 Z M 1022.53125 1279.921875 L 1041.878906 1279.921875 L 1041.878906 1299.269531 L 1022.53125 1299.269531 Z M 468.125 1279.921875 L 487.476562 1279.921875 L 487.476562 1299.269531 L 468.125 1299.269531 Z M 1695.730469 1279.921875 L 1715.078125 1279.921875 L 1715.078125 1299.269531 L 1695.730469 1299.269531 Z M 1220.53125 1279.921875 L 1239.878906 1279.921875 L 1239.878906 1299.269531 L 1220.53125 1299.269531 Z M 1180.929688 1279.921875 L 1200.269531 1279.921875 L 1200.269531 1299.269531 L 1180.929688 1299.269531 Z M 1141.328125 1279.921875 L 1160.671875 1279.921875 L 1160.671875 1299.269531 L 1141.328125 1299.269531 Z M 1101.730469 1279.921875 L 1121.070312 1279.921875 L 1121.070312 1299.269531 L 1101.730469 1299.269531 Z M 1062.128906 1279.921875 L 1081.46875 1279.921875 L 1081.46875 1299.269531 L 1062.128906 1299.269531 Z M 1418.53125 1279.921875 L 1437.878906 1279.921875 L 1437.878906 1299.269531 L 1418.53125 1299.269531 Z M 943.324219 1279.921875 L 962.675781 1279.921875 L 962.675781 1299.269531 L 943.324219 1299.269531 Z M 982.925781 1279.921875 L 1002.269531 1279.921875 L 1002.269531 1299.269531 L 982.925781 1299.269531 Z M 586.925781 1279.921875 L 606.273438 1279.921875 L 606.273438 1299.269531 L 586.925781 1299.269531 Z M 547.324219 1279.921875 L 566.675781 1279.921875 L 566.675781 1299.269531 L 547.324219 1299.269531 Z M 1458.128906 1279.921875 L 1477.46875 1279.921875 L 1477.46875 1299.269531 L 1458.128906 1299.269531 Z M 2091.828125 1319.628906 L 2110.96875 1319.628906 L 2110.96875 1338.769531 L 2091.828125 1338.769531 Z M 2052.230469 1319.628906 L 2071.371094 1319.628906 L 2071.371094 1338.769531 L 2052.230469 1338.769531 Z M 982.925781 1319.53125 L 1002.269531 1319.53125 L 1002.269531 1338.878906 L 982.925781 1338.878906 Z M 1339.328125 1319.53125 L 1358.671875 1319.53125 L 1358.671875 1338.878906 L 1339.328125 1338.878906 Z M 1378.921875 1319.53125 L 1398.269531 1319.53125 L 1398.269531 1338.878906 L 1378.921875 1338.878906 Z M 468.125 1319.53125 L 487.476562 1319.53125 L 487.476562 1338.878906 L 468.125 1338.878906 Z M 507.726562 1319.53125 L 527.074219 1319.53125 L 527.074219 1338.878906 L 507.726562 1338.878906 Z M 626.523438 1319.53125 L 645.875 1319.53125 L 645.875 1338.878906 L 626.523438 1338.878906 Z M 1299.730469 1319.53125 L 1319.078125 1319.53125 L 1319.078125 1338.878906 L 1299.730469 1338.878906 Z M 1458.128906 1319.53125 L 1477.46875 1319.53125 L 1477.46875 1338.878906 L 1458.128906 1338.878906 Z M 1893.730469 1319.53125 L 1913.078125 1319.53125 L 1913.078125 1338.878906 L 1893.730469 1338.878906 Z M 2012.53125 1319.53125 L 2031.878906 1319.53125 L 2031.878906 1338.878906 L 2012.53125 1338.878906 Z M 1220.53125 1319.53125 L 1239.878906 1319.53125 L 1239.878906 1338.878906 L 1220.53125 1338.878906 Z M 1854.128906 1319.53125 L 1873.46875 1319.53125 L 1873.46875 1338.878906 L 1854.128906 1338.878906 Z M 705.726562 1319.53125 L 725.074219 1319.53125 L 725.074219 1338.878906 L 705.726562 1338.878906 Z M 666.125 1319.53125 L 685.476562 1319.53125 L 685.476562 1338.878906 L 666.125 1338.878906 Z M 547.324219 1319.53125 L 566.675781 1319.53125 L 566.675781 1338.878906 L 547.324219 1338.878906 Z M 586.925781 1319.53125 L 606.273438 1319.53125 L 606.273438 1338.878906 L 586.925781 1338.878906 Z M 1972.921875 1319.53125 L 1992.269531 1319.53125 L 1992.269531 1338.878906 L 1972.921875 1338.878906 Z M 1933.328125 1319.53125 L 1952.671875 1319.53125 L 1952.671875 1338.878906 L 1933.328125 1338.878906 Z M 1180.929688 1319.53125 L 1200.269531 1319.53125 L 1200.269531 1338.878906 L 1180.929688 1338.878906 Z M 1418.53125 1319.53125 L 1437.878906 1319.53125 L 1437.878906 1338.878906 L 1418.53125 1338.878906 Z M 1141.328125 1319.53125 L 1160.671875 1319.53125 L 1160.671875 1338.878906 L 1141.328125 1338.878906 Z M 1101.730469 1319.53125 L 1121.070312 1319.53125 L 1121.070312 1338.878906 L 1101.730469 1338.878906 Z M 1260.128906 1319.53125 L 1279.46875 1319.53125 L 1279.46875 1338.878906 L 1260.128906 1338.878906 Z M 1972.980469 1359.179688 L 1992.21875 1359.179688 L 1992.21875 1378.421875 L 1972.980469 1378.421875 Z M 1933.378906 1359.179688 L 1952.621094 1359.179688 L 1952.621094 1378.421875 L 1933.378906 1378.421875 Z M 1220.53125 1359.128906 L 1239.878906 1359.128906 L 1239.878906 1378.46875 L 1220.53125 1378.46875 Z M 507.726562 1359.128906 L 527.074219 1359.128906 L 527.074219 1378.46875 L 507.726562 1378.46875 Z M 1180.929688 1359.128906 L 1200.269531 1359.128906 L 1200.269531 1378.46875 L 1180.929688 1378.46875 Z M 547.324219 1359.128906 L 566.675781 1359.128906 L 566.675781 1378.46875 L 547.324219 1378.46875 Z M 784.925781 1359.128906 L 804.273438 1359.128906 L 804.273438 1378.46875 L 784.925781 1378.46875 Z M 666.125 1359.128906 L 685.476562 1359.128906 L 685.476562 1378.46875 L 666.125 1378.46875 Z M 468.125 1359.128906 L 487.476562 1359.128906 L 487.476562 1378.46875 L 468.125 1378.46875 Z M 2012.53125 1359.128906 L 2031.878906 1359.128906 L 2031.878906 1378.46875 L 2012.53125 1378.46875 Z M 705.726562 1359.128906 L 725.074219 1359.128906 L 725.074219 1378.46875 L 705.726562 1378.46875 Z M 1339.328125 1359.128906 L 1358.671875 1359.128906 L 1358.671875 1378.46875 L 1339.328125 1378.46875 Z M 626.523438 1359.128906 L 645.875 1359.128906 L 645.875 1378.46875 L 626.523438 1378.46875 Z M 1299.730469 1359.128906 L 1319.078125 1359.128906 L 1319.078125 1378.46875 L 1299.730469 1378.46875 Z M 586.925781 1359.128906 L 606.273438 1359.128906 L 606.273438 1378.46875 L 586.925781 1378.46875 Z M 2250.128906 1359.128906 L 2269.46875 1359.128906 L 2269.46875 1378.46875 L 2250.128906 1378.46875 Z M 2210.53125 1359.128906 L 2229.878906 1359.128906 L 2229.878906 1378.46875 L 2210.53125 1378.46875 Z M 1893.730469 1359.128906 L 1913.078125 1359.128906 L 1913.078125 1378.46875 L 1893.730469 1378.46875 Z M 1418.53125 1359.128906 L 1437.878906 1359.128906 L 1437.878906 1378.46875 L 1418.53125 1378.46875 Z M 1378.921875 1359.128906 L 1398.269531 1359.128906 L 1398.269531 1378.46875 L 1378.921875 1378.46875 Z M 2170.921875 1359.128906 L 2190.269531 1359.128906 L 2190.269531 1378.46875 L 2170.921875 1378.46875 Z M 1260.128906 1359.128906 L 1279.46875 1359.128906 L 1279.46875 1378.46875 L 1260.128906 1378.46875 Z M 2091.730469 1359.128906 L 2111.078125 1359.128906 L 2111.078125 1378.46875 L 2091.730469 1378.46875 Z M 1141.328125 1359.128906 L 1160.671875 1359.128906 L 1160.671875 1378.46875 L 1141.328125 1378.46875 Z M 745.324219 1359.128906 L 764.675781 1359.128906 L 764.675781 1378.46875 L 745.324219 1378.46875 Z M 2289.730469 1359.128906 L 2309.078125 1359.128906 L 2309.078125 1378.46875 L 2289.730469 1378.46875 Z M 824.523438 1359.128906 L 843.875 1359.128906 L 843.875 1378.46875 L 824.523438 1378.46875 Z M 2052.128906 1359.128906 L 2071.46875 1359.128906 L 2071.46875 1378.46875 L 2052.128906 1378.46875 Z M 2052.671875 1399.269531 L 2070.929688 1399.269531 L 2070.929688 1417.53125 L 2052.671875 1417.53125 Z M 2012.800781 1399 L 2031.601562 1399 L 2031.601562 1417.800781 L 2012.800781 1417.800781 Z M 2131.488281 1398.890625 L 2150.511719 1398.890625 L 2150.511719 1417.910156 L 2131.488281 1417.910156 Z M 2289.890625 1398.890625 L 2308.910156 1398.890625 L 2308.910156 1417.910156 L 2289.890625 1417.910156 Z M 2091.890625 1398.890625 L 2110.910156 1398.890625 L 2110.910156 1417.910156 L 2091.890625 1417.910156 Z M 2329.488281 1398.890625 L 2348.511719 1398.890625 L 2348.511719 1417.910156 L 2329.488281 1417.910156 Z M 1378.921875 1398.730469 L 1398.269531 1398.730469 L 1398.269531 1418.078125 L 1378.921875 1418.078125 Z M 507.726562 1398.730469 L 527.074219 1398.730469 L 527.074219 1418.078125 L 507.726562 1418.078125 Z M 547.324219 1398.730469 L 566.675781 1398.730469 L 566.675781 1418.078125 L 547.324219 1418.078125 Z M 1260.128906 1398.730469 L 1279.46875 1398.730469 L 1279.46875 1418.078125 L 1260.128906 1418.078125 Z M 705.726562 1398.730469 L 725.074219 1398.730469 L 725.074219 1418.078125 L 705.726562 1418.078125 Z M 784.925781 1398.730469 L 804.273438 1398.730469 L 804.273438 1418.078125 L 784.925781 1418.078125 Z M 824.523438 1398.730469 L 843.875 1398.730469 L 843.875 1418.078125 L 824.523438 1418.078125 Z M 666.125 1398.730469 L 685.476562 1398.730469 L 685.476562 1418.078125 L 666.125 1418.078125 Z M 2250.128906 1398.730469 L 2269.46875 1398.730469 L 2269.46875 1418.078125 L 2250.128906 1418.078125 Z M 1933.328125 1398.730469 L 1952.671875 1398.730469 L 1952.671875 1418.078125 L 1933.328125 1418.078125 Z M 1141.328125 1398.730469 L 1160.671875 1398.730469 L 1160.671875 1418.078125 L 1141.328125 1418.078125 Z M 468.125 1398.730469 L 487.476562 1398.730469 L 487.476562 1418.078125 L 468.125 1418.078125 Z M 1220.53125 1398.730469 L 1239.878906 1398.730469 L 1239.878906 1418.078125 L 1220.53125 1418.078125 Z M 745.324219 1398.730469 L 764.675781 1398.730469 L 764.675781 1418.078125 L 745.324219 1418.078125 Z M 1180.929688 1398.730469 L 1200.269531 1398.730469 L 1200.269531 1418.078125 L 1180.929688 1418.078125 Z M 1339.328125 1398.730469 L 1358.671875 1398.730469 L 1358.671875 1418.078125 L 1339.328125 1418.078125 Z M 2210.53125 1398.730469 L 2229.878906 1398.730469 L 2229.878906 1418.078125 L 2210.53125 1418.078125 Z M 1299.730469 1398.730469 L 1319.078125 1398.730469 L 1319.078125 1418.078125 L 1299.730469 1418.078125 Z M 626.523438 1398.730469 L 645.875 1398.730469 L 645.875 1418.078125 L 626.523438 1418.078125 Z M 586.925781 1398.730469 L 606.273438 1398.730469 L 606.273438 1418.078125 L 586.925781 1418.078125 Z M 1972.921875 1398.730469 L 1992.269531 1398.730469 L 1992.269531 1418.078125 L 1972.921875 1418.078125 Z M 2132.410156 1439.410156 L 2149.589844 1439.410156 L 2149.589844 1456.589844 L 2132.410156 1456.589844 Z M 2052.78125 1438.980469 L 2070.820312 1438.980469 L 2070.820312 1457.019531 L 2052.78125 1457.019531 Z M 2091.890625 1438.488281 L 2110.910156 1438.488281 L 2110.910156 1457.511719 L 2091.890625 1457.511719 Z M 784.925781 1438.328125 L 804.273438 1438.328125 L 804.273438 1457.671875 L 784.925781 1457.671875 Z M 745.324219 1438.328125 L 764.675781 1438.328125 L 764.675781 1457.671875 L 745.324219 1457.671875 Z M 2210.53125 1438.328125 L 2229.878906 1438.328125 L 2229.878906 1457.671875 L 2210.53125 1457.671875 Z M 507.726562 1438.328125 L 527.074219 1438.328125 L 527.074219 1457.671875 L 507.726562 1457.671875 Z M 586.925781 1438.328125 L 606.273438 1438.328125 L 606.273438 1457.671875 L 586.925781 1457.671875 Z M 705.726562 1438.328125 L 725.074219 1438.328125 L 725.074219 1457.671875 L 705.726562 1457.671875 Z M 626.523438 1438.328125 L 645.875 1438.328125 L 645.875 1457.671875 L 626.523438 1457.671875 Z M 547.324219 1438.328125 L 566.675781 1438.328125 L 566.675781 1457.671875 L 547.324219 1457.671875 Z M 1339.328125 1438.328125 L 1358.671875 1438.328125 L 1358.671875 1457.671875 L 1339.328125 1457.671875 Z M 1180.929688 1438.328125 L 1200.269531 1438.328125 L 1200.269531 1457.671875 L 1180.929688 1457.671875 Z M 1299.730469 1438.328125 L 1319.078125 1438.328125 L 1319.078125 1457.671875 L 1299.730469 1457.671875 Z M 2250.128906 1438.328125 L 2269.46875 1438.328125 L 2269.46875 1457.671875 L 2250.128906 1457.671875 Z M 2170.921875 1438.328125 L 2190.269531 1438.328125 L 2190.269531 1457.671875 L 2170.921875 1457.671875 Z M 2289.730469 1438.328125 L 2309.078125 1438.328125 L 2309.078125 1457.671875 L 2289.730469 1457.671875 Z M 1458.128906 1438.328125 L 1477.46875 1438.328125 L 1477.46875 1457.671875 L 1458.128906 1457.671875 Z M 468.125 1438.328125 L 487.476562 1438.328125 L 487.476562 1457.671875 L 468.125 1457.671875 Z M 824.523438 1438.328125 L 843.875 1438.328125 L 843.875 1457.671875 L 824.523438 1457.671875 Z M 666.125 1438.328125 L 685.476562 1438.328125 L 685.476562 1457.671875 L 666.125 1457.671875 Z M 1378.921875 1438.328125 L 1398.269531 1438.328125 L 1398.269531 1457.671875 L 1378.921875 1457.671875 Z M 1141.328125 1438.328125 L 1160.671875 1438.328125 L 1160.671875 1457.671875 L 1141.328125 1457.671875 Z M 1260.128906 1438.328125 L 1279.46875 1438.328125 L 1279.46875 1457.671875 L 1260.128906 1457.671875 Z M 1220.53125 1438.328125 L 1239.878906 1438.328125 L 1239.878906 1457.671875 L 1220.53125 1457.671875 Z M 1378.921875 1477.921875 L 1398.269531 1477.921875 L 1398.269531 1497.269531 L 1378.921875 1497.269531 Z M 745.324219 1477.921875 L 764.675781 1477.921875 L 764.675781 1497.269531 L 745.324219 1497.269531 Z M 1220.53125 1477.921875 L 1239.878906 1477.921875 L 1239.878906 1497.269531 L 1220.53125 1497.269531 Z M 507.726562 1477.921875 L 527.074219 1477.921875 L 527.074219 1497.269531 L 507.726562 1497.269531 Z M 626.523438 1477.921875 L 645.875 1477.921875 L 645.875 1497.269531 L 626.523438 1497.269531 Z M 1299.730469 1477.921875 L 1319.078125 1477.921875 L 1319.078125 1497.269531 L 1299.730469 1497.269531 Z M 586.925781 1477.921875 L 606.273438 1477.921875 L 606.273438 1497.269531 L 586.925781 1497.269531 Z M 666.125 1477.921875 L 685.476562 1477.921875 L 685.476562 1497.269531 L 666.125 1497.269531 Z M 1260.128906 1477.921875 L 1279.46875 1477.921875 L 1279.46875 1497.269531 L 1260.128906 1497.269531 Z M 2131.328125 1477.921875 L 2150.671875 1477.921875 L 2150.671875 1497.269531 L 2131.328125 1497.269531 Z M 2091.730469 1477.921875 L 2111.078125 1477.921875 L 2111.078125 1497.269531 L 2091.730469 1497.269531 Z M 2052.128906 1477.921875 L 2071.46875 1477.921875 L 2071.46875 1497.269531 L 2052.128906 1497.269531 Z M 1458.128906 1477.921875 L 1477.46875 1477.921875 L 1477.46875 1497.269531 L 1458.128906 1497.269531 Z M 784.925781 1477.921875 L 804.273438 1477.921875 L 804.273438 1497.269531 L 784.925781 1497.269531 Z M 2250.128906 1477.921875 L 2269.46875 1477.921875 L 2269.46875 1497.269531 L 2250.128906 1497.269531 Z M 2210.53125 1477.921875 L 2229.878906 1477.921875 L 2229.878906 1497.269531 L 2210.53125 1497.269531 Z M 547.324219 1477.921875 L 566.675781 1477.921875 L 566.675781 1497.269531 L 547.324219 1497.269531 Z M 705.726562 1477.921875 L 725.074219 1477.921875 L 725.074219 1497.269531 L 705.726562 1497.269531 Z M 2170.921875 1477.921875 L 2190.269531 1477.921875 L 2190.269531 1497.269531 L 2170.921875 1497.269531 Z M 1418.53125 1477.921875 L 1437.878906 1477.921875 L 1437.878906 1497.269531 L 1418.53125 1497.269531 Z M 1180.929688 1477.921875 L 1200.269531 1477.921875 L 1200.269531 1497.269531 L 1180.929688 1497.269531 Z M 1141.328125 1477.921875 L 1160.671875 1477.921875 L 1160.671875 1497.269531 L 1141.328125 1497.269531 Z M 824.523438 1477.921875 L 843.875 1477.921875 L 843.875 1497.269531 L 824.523438 1497.269531 Z M 1339.328125 1477.921875 L 1358.671875 1477.921875 L 1358.671875 1497.269531 L 1339.328125 1497.269531 Z M 1260.128906 1517.53125 L 1279.46875 1517.53125 L 1279.46875 1536.878906 L 1260.128906 1536.878906 Z M 1299.730469 1517.53125 L 1319.078125 1517.53125 L 1319.078125 1536.878906 L 1299.730469 1536.878906 Z M 2091.730469 1517.53125 L 2111.078125 1517.53125 L 2111.078125 1536.878906 L 2091.730469 1536.878906 Z M 2170.921875 1517.53125 L 2190.269531 1517.53125 L 2190.269531 1536.878906 L 2170.921875 1536.878906 Z M 745.324219 1517.53125 L 764.675781 1517.53125 L 764.675781 1536.878906 L 745.324219 1536.878906 Z M 1339.328125 1517.53125 L 1358.671875 1517.53125 L 1358.671875 1536.878906 L 1339.328125 1536.878906 Z M 784.925781 1517.53125 L 804.273438 1517.53125 L 804.273438 1536.878906 L 784.925781 1536.878906 Z M 1141.328125 1517.53125 L 1160.671875 1517.53125 L 1160.671875 1536.878906 L 1141.328125 1536.878906 Z M 824.523438 1517.53125 L 843.875 1517.53125 L 843.875 1536.878906 L 824.523438 1536.878906 Z M 547.324219 1517.53125 L 566.675781 1517.53125 L 566.675781 1536.878906 L 547.324219 1536.878906 Z M 1220.53125 1517.53125 L 1239.878906 1517.53125 L 1239.878906 1536.878906 L 1220.53125 1536.878906 Z M 2210.53125 1517.53125 L 2229.878906 1517.53125 L 2229.878906 1536.878906 L 2210.53125 1536.878906 Z M 2131.328125 1517.53125 L 2150.671875 1517.53125 L 2150.671875 1536.878906 L 2131.328125 1536.878906 Z M 2052.128906 1517.53125 L 2071.46875 1517.53125 L 2071.46875 1536.878906 L 2052.128906 1536.878906 Z M 2012.53125 1517.53125 L 2031.878906 1517.53125 L 2031.878906 1536.878906 L 2012.53125 1536.878906 Z M 1972.921875 1517.53125 L 1992.269531 1517.53125 L 1992.269531 1536.878906 L 1972.921875 1536.878906 Z M 1458.128906 1517.53125 L 1477.46875 1517.53125 L 1477.46875 1536.878906 L 1458.128906 1536.878906 Z M 1418.53125 1517.53125 L 1437.878906 1517.53125 L 1437.878906 1536.878906 L 1418.53125 1536.878906 Z M 626.523438 1517.53125 L 645.875 1517.53125 L 645.875 1536.878906 L 626.523438 1536.878906 Z M 1180.929688 1517.53125 L 1200.269531 1517.53125 L 1200.269531 1536.878906 L 1180.929688 1536.878906 Z M 705.726562 1517.53125 L 725.074219 1517.53125 L 725.074219 1536.878906 L 705.726562 1536.878906 Z M 666.125 1517.53125 L 685.476562 1517.53125 L 685.476562 1536.878906 L 666.125 1536.878906 Z M 586.925781 1517.53125 L 606.273438 1517.53125 L 606.273438 1536.878906 L 586.925781 1536.878906 Z M 2289.730469 1517.53125 L 2309.078125 1517.53125 L 2309.078125 1536.878906 L 2289.730469 1536.878906 Z M 2250.128906 1517.53125 L 2269.46875 1517.53125 L 2269.46875 1536.878906 L 2250.128906 1536.878906 Z M 1972.921875 1557.128906 L 1992.269531 1557.128906 L 1992.269531 1576.46875 L 1972.921875 1576.46875 Z M 2012.53125 1557.128906 L 2031.878906 1557.128906 L 2031.878906 1576.46875 L 2012.53125 1576.46875 Z M 586.925781 1557.128906 L 606.273438 1557.128906 L 606.273438 1576.46875 L 586.925781 1576.46875 Z M 784.925781 1557.128906 L 804.273438 1557.128906 L 804.273438 1576.46875 L 784.925781 1576.46875 Z M 745.324219 1557.128906 L 764.675781 1557.128906 L 764.675781 1576.46875 L 745.324219 1576.46875 Z M 705.726562 1557.128906 L 725.074219 1557.128906 L 725.074219 1576.46875 L 705.726562 1576.46875 Z M 666.125 1557.128906 L 685.476562 1557.128906 L 685.476562 1576.46875 L 666.125 1576.46875 Z M 626.523438 1557.128906 L 645.875 1557.128906 L 645.875 1576.46875 L 626.523438 1576.46875 Z M 1260.128906 1557.128906 L 1279.46875 1557.128906 L 1279.46875 1576.46875 L 1260.128906 1576.46875 Z M 1220.53125 1557.128906 L 1239.878906 1557.128906 L 1239.878906 1576.46875 L 1220.53125 1576.46875 Z M 1180.929688 1557.128906 L 1200.269531 1557.128906 L 1200.269531 1576.46875 L 1180.929688 1576.46875 Z M 2091.730469 1557.128906 L 2111.078125 1557.128906 L 2111.078125 1576.46875 L 2091.730469 1576.46875 Z M 2052.128906 1557.128906 L 2071.46875 1557.128906 L 2071.46875 1576.46875 L 2052.128906 1576.46875 Z M 1299.730469 1557.128906 L 1319.078125 1557.128906 L 1319.078125 1576.46875 L 1299.730469 1576.46875 Z M 2170.921875 1557.128906 L 2190.269531 1557.128906 L 2190.269531 1576.46875 L 2170.921875 1576.46875 Z M 547.324219 1557.128906 L 566.675781 1557.128906 L 566.675781 1576.46875 L 547.324219 1576.46875 Z M 1339.328125 1557.128906 L 1358.671875 1557.128906 L 1358.671875 1576.46875 L 1339.328125 1576.46875 Z M 2289.730469 1557.128906 L 2309.078125 1557.128906 L 2309.078125 1576.46875 L 2289.730469 1576.46875 Z M 2250.128906 1557.128906 L 2269.46875 1557.128906 L 2269.46875 1576.46875 L 2250.128906 1576.46875 Z M 2210.53125 1557.128906 L 2229.878906 1557.128906 L 2229.878906 1576.46875 L 2210.53125 1576.46875 Z M 2131.328125 1557.128906 L 2150.671875 1557.128906 L 2150.671875 1576.46875 L 2131.328125 1576.46875 Z M 1418.53125 1557.128906 L 1437.878906 1557.128906 L 1437.878906 1576.46875 L 1418.53125 1576.46875 Z M 1458.128906 1557.128906 L 1477.46875 1557.128906 L 1477.46875 1576.46875 L 1458.128906 1576.46875 Z M 745.324219 1596.730469 L 764.675781 1596.730469 L 764.675781 1616.078125 L 745.324219 1616.078125 Z M 1180.929688 1596.730469 L 1200.269531 1596.730469 L 1200.269531 1616.078125 L 1180.929688 1616.078125 Z M 1260.128906 1596.730469 L 1279.46875 1596.730469 L 1279.46875 1616.078125 L 1260.128906 1616.078125 Z M 2131.328125 1596.730469 L 2150.671875 1596.730469 L 2150.671875 1616.078125 L 2131.328125 1616.078125 Z M 2210.53125 1596.730469 L 2229.878906 1596.730469 L 2229.878906 1616.078125 L 2210.53125 1616.078125 Z M 547.324219 1596.730469 L 566.675781 1596.730469 L 566.675781 1616.078125 L 547.324219 1616.078125 Z M 1972.921875 1596.730469 L 1992.269531 1596.730469 L 1992.269531 1616.078125 L 1972.921875 1616.078125 Z M 2289.730469 1596.730469 L 2309.078125 1596.730469 L 2309.078125 1616.078125 L 2289.730469 1616.078125 Z M 586.925781 1596.730469 L 606.273438 1596.730469 L 606.273438 1616.078125 L 586.925781 1616.078125 Z M 2091.730469 1596.730469 L 2111.078125 1596.730469 L 2111.078125 1616.078125 L 2091.730469 1616.078125 Z M 2170.921875 1596.730469 L 2190.269531 1596.730469 L 2190.269531 1616.078125 L 2170.921875 1616.078125 Z M 2250.128906 1596.730469 L 2269.46875 1596.730469 L 2269.46875 1616.078125 L 2250.128906 1616.078125 Z M 1299.730469 1596.730469 L 1319.078125 1596.730469 L 1319.078125 1616.078125 L 1299.730469 1616.078125 Z M 1220.53125 1596.730469 L 1239.878906 1596.730469 L 1239.878906 1616.078125 L 1220.53125 1616.078125 Z M 2052.128906 1596.730469 L 2071.46875 1596.730469 L 2071.46875 1616.078125 L 2052.128906 1616.078125 Z M 2012.53125 1596.730469 L 2031.878906 1596.730469 L 2031.878906 1616.078125 L 2012.53125 1616.078125 Z M 626.523438 1596.730469 L 645.875 1596.730469 L 645.875 1616.078125 L 626.523438 1616.078125 Z M 705.726562 1596.730469 L 725.074219 1596.730469 L 725.074219 1616.078125 L 705.726562 1616.078125 Z M 666.125 1596.730469 L 685.476562 1596.730469 L 685.476562 1616.078125 L 666.125 1616.078125 Z M 2210.53125 1636.328125 L 2229.878906 1636.328125 L 2229.878906 1655.671875 L 2210.53125 1655.671875 Z M 666.125 1636.328125 L 685.476562 1636.328125 L 685.476562 1655.671875 L 666.125 1655.671875 Z M 1180.929688 1636.328125 L 1200.269531 1636.328125 L 1200.269531 1655.671875 L 1180.929688 1655.671875 Z M 1220.53125 1636.328125 L 1239.878906 1636.328125 L 1239.878906 1655.671875 L 1220.53125 1655.671875 Z M 2052.128906 1636.328125 L 2071.46875 1636.328125 L 2071.46875 1655.671875 L 2052.128906 1655.671875 Z M 1299.730469 1636.328125 L 1319.078125 1636.328125 L 1319.078125 1655.671875 L 1299.730469 1655.671875 Z M 586.925781 1636.328125 L 606.273438 1636.328125 L 606.273438 1655.671875 L 586.925781 1655.671875 Z M 626.523438 1636.328125 L 645.875 1636.328125 L 645.875 1655.671875 L 626.523438 1655.671875 Z M 1972.921875 1636.328125 L 1992.269531 1636.328125 L 1992.269531 1655.671875 L 1972.921875 1655.671875 Z M 2448.128906 1636.328125 L 2467.46875 1636.328125 L 2467.46875 1655.671875 L 2448.128906 1655.671875 Z M 2289.730469 1636.328125 L 2309.078125 1636.328125 L 2309.078125 1655.671875 L 2289.730469 1655.671875 Z M 2170.921875 1636.328125 L 2190.269531 1636.328125 L 2190.269531 1655.671875 L 2170.921875 1655.671875 Z M 547.324219 1636.328125 L 566.675781 1636.328125 L 566.675781 1655.671875 L 547.324219 1655.671875 Z M 705.726562 1636.328125 L 725.074219 1636.328125 L 725.074219 1655.671875 L 705.726562 1655.671875 Z M 2012.53125 1636.328125 L 2031.878906 1636.328125 L 2031.878906 1655.671875 L 2012.53125 1655.671875 Z M 2408.53125 1636.328125 L 2427.878906 1636.328125 L 2427.878906 1655.671875 L 2408.53125 1655.671875 Z M 1260.128906 1636.328125 L 1279.46875 1636.328125 L 1279.46875 1655.671875 L 1260.128906 1655.671875 Z M 2131.328125 1636.328125 L 2150.671875 1636.328125 L 2150.671875 1655.671875 L 2131.328125 1655.671875 Z M 2250.128906 1636.328125 L 2269.46875 1636.328125 L 2269.46875 1655.671875 L 2250.128906 1655.671875 Z M 2210.578125 1675.980469 L 2229.820312 1675.980469 L 2229.820312 1695.21875 L 2210.578125 1695.21875 Z M 2170.980469 1675.980469 L 2190.21875 1675.980469 L 2190.21875 1695.21875 L 2170.980469 1695.21875 Z M 2448.128906 1675.921875 L 2467.46875 1675.921875 L 2467.46875 1695.269531 L 2448.128906 1695.269531 Z M 547.324219 1675.921875 L 566.675781 1675.921875 L 566.675781 1695.269531 L 547.324219 1695.269531 Z M 626.523438 1675.921875 L 645.875 1675.921875 L 645.875 1695.269531 L 626.523438 1695.269531 Z M 586.925781 1675.921875 L 606.273438 1675.921875 L 606.273438 1695.269531 L 586.925781 1695.269531 Z M 705.726562 1675.921875 L 725.074219 1675.921875 L 725.074219 1695.269531 L 705.726562 1695.269531 Z M 2408.53125 1675.921875 L 2427.878906 1675.921875 L 2427.878906 1695.269531 L 2408.53125 1695.269531 Z M 2250.128906 1675.921875 L 2269.46875 1675.921875 L 2269.46875 1695.269531 L 2250.128906 1695.269531 Z M 2368.921875 1675.921875 L 2388.269531 1675.921875 L 2388.269531 1695.269531 L 2368.921875 1695.269531 Z M 666.125 1675.921875 L 685.476562 1675.921875 L 685.476562 1695.269531 L 666.125 1695.269531 Z M 2210.578125 1715.578125 L 2229.820312 1715.578125 L 2229.820312 1734.820312 L 2210.578125 1734.820312 Z M 2170.980469 1715.578125 L 2190.21875 1715.578125 L 2190.21875 1734.820312 L 2170.980469 1734.820312 Z M 586.925781 1715.53125 L 606.273438 1715.53125 L 606.273438 1734.878906 L 586.925781 1734.878906 Z M 2368.921875 1715.53125 L 2388.269531 1715.53125 L 2388.269531 1734.878906 L 2368.921875 1734.878906 Z M 666.125 1715.53125 L 685.476562 1715.53125 L 685.476562 1734.878906 L 666.125 1734.878906 Z M 2329.328125 1715.53125 L 2348.671875 1715.53125 L 2348.671875 1734.878906 L 2329.328125 1734.878906 Z M 2289.730469 1715.53125 L 2309.078125 1715.53125 L 2309.078125 1734.878906 L 2289.730469 1734.878906 Z M 2408.53125 1715.53125 L 2427.878906 1715.53125 L 2427.878906 1734.878906 L 2408.53125 1734.878906 Z M 626.523438 1715.53125 L 645.875 1715.53125 L 645.875 1734.878906 L 626.523438 1734.878906 Z M 586.925781 1755.128906 L 606.273438 1755.128906 L 606.273438 1774.46875 L 586.925781 1774.46875 Z M 626.523438 1755.128906 L 645.875 1755.128906 L 645.875 1774.46875 L 626.523438 1774.46875 Z M 666.125 1755.128906 L 685.476562 1755.128906 L 685.476562 1774.46875 L 666.125 1774.46875 Z M 2329.328125 1755.128906 L 2348.671875 1755.128906 L 2348.671875 1774.46875 L 2329.328125 1774.46875 Z M 626.523438 1794.730469 L 645.875 1794.730469 L 645.875 1814.078125 L 626.523438 1814.078125 Z M 586.925781 1794.730469 L 606.273438 1794.730469 L 606.273438 1814.078125 L 586.925781 1814.078125 Z M 666.125 1794.730469 L 685.476562 1794.730469 L 685.476562 1814.078125 L 666.125 1814.078125 Z M 666.125 1794.730469 "/>
</clipPath>
<linearGradient id="linear-pattern-0" gradientUnits="userSpaceOnUse" x1="0.0000000821372" y1="0" x2="0.999998" y2="0" gradientTransform="matrix(2434.95, 0, 0, 2434.95, 32.5252, 1250)">
<stop offset="0" stop-color="rgb(49.01886%, 56.469727%, 44.7052%)" stop-opacity="1"/>
<stop offset="0.0078125" stop-color="rgb(48.864746%, 56.362915%, 44.595337%)" stop-opacity="1"/>
<stop offset="0.015625" stop-color="rgb(48.556519%, 56.149292%, 44.37561%)" stop-opacity="1"/>
<stop offset="0.0234375" stop-color="rgb(48.248291%, 55.935669%, 44.155884%)" stop-opacity="1"/>
<stop offset="0.03125" stop-color="rgb(47.940063%, 55.723572%, 43.937683%)" stop-opacity="1"/>
<stop offset="0.0390625" stop-color="rgb(47.631836%, 55.509949%, 43.717957%)" stop-opacity="1"/>
<stop offset="0.046875" stop-color="rgb(47.323608%, 55.296326%, 43.49823%)" stop-opacity="1"/>
<stop offset="0.0546875" stop-color="rgb(47.015381%, 55.082703%, 43.280029%)" stop-opacity="1"/>
<stop offset="0.0625" stop-color="rgb(46.707153%, 54.86908%, 43.060303%)" stop-opacity="1"/>
<stop offset="0.0703125" stop-color="rgb(46.398926%, 54.655457%, 42.840576%)" stop-opacity="1"/>
<stop offset="0.078125" stop-color="rgb(46.090698%, 54.441833%, 42.62085%)" stop-opacity="1"/>
<stop offset="0.0859375" stop-color="rgb(45.782471%, 54.229736%, 42.402649%)" stop-opacity="1"/>
<stop offset="0.09375" stop-color="rgb(45.474243%, 54.016113%, 42.182922%)" stop-opacity="1"/>
<stop offset="0.101562" stop-color="rgb(45.166016%, 53.80249%, 41.963196%)" stop-opacity="1"/>
<stop offset="0.109375" stop-color="rgb(44.857788%, 53.588867%, 41.743469%)" stop-opacity="1"/>
<stop offset="0.117188" stop-color="rgb(44.549561%, 53.375244%, 41.525269%)" stop-opacity="1"/>
<stop offset="0.125" stop-color="rgb(44.241333%, 53.161621%, 41.305542%)" stop-opacity="1"/>
<stop offset="0.132813" stop-color="rgb(43.933105%, 52.947998%, 41.085815%)" stop-opacity="1"/>
<stop offset="0.140625" stop-color="rgb(43.624878%, 52.735901%, 40.866089%)" stop-opacity="1"/>
<stop offset="0.148438" stop-color="rgb(43.31665%, 52.522278%, 40.647888%)" stop-opacity="1"/>
<stop offset="0.15625" stop-color="rgb(43.008423%, 52.308655%, 40.428162%)" stop-opacity="1"/>
<stop offset="0.164063" stop-color="rgb(42.700195%, 52.095032%, 40.208435%)" stop-opacity="1"/>
<stop offset="0.171875" stop-color="rgb(42.391968%, 51.881409%, 39.990234%)" stop-opacity="1"/>
<stop offset="0.179688" stop-color="rgb(42.08374%, 51.667786%, 39.770508%)" stop-opacity="1"/>
<stop offset="0.1875" stop-color="rgb(41.775513%, 51.455688%, 39.550781%)" stop-opacity="1"/>
<stop offset="0.195313" stop-color="rgb(41.467285%, 51.242065%, 39.331055%)" stop-opacity="1"/>
<stop offset="0.203125" stop-color="rgb(41.159058%, 51.028442%, 39.112854%)" stop-opacity="1"/>
<stop offset="0.210938" stop-color="rgb(40.85083%, 50.814819%, 38.893127%)" stop-opacity="1"/>
<stop offset="0.21875" stop-color="rgb(40.542603%, 50.601196%, 38.673401%)" stop-opacity="1"/>
<stop offset="0.226563" stop-color="rgb(40.234375%, 50.387573%, 38.453674%)" stop-opacity="1"/>
<stop offset="0.234375" stop-color="rgb(39.926147%, 50.17395%, 38.235474%)" stop-opacity="1"/>
<stop offset="0.242188" stop-color="rgb(39.61792%, 49.961853%, 38.015747%)" stop-opacity="1"/>
<stop offset="0.25" stop-color="rgb(39.309692%, 49.74823%, 37.796021%)" stop-opacity="1"/>
<stop offset="0.257813" stop-color="rgb(39.001465%, 49.534607%, 37.576294%)" stop-opacity="1"/>
<stop offset="0.265625" stop-color="rgb(38.693237%, 49.320984%, 37.358093%)" stop-opacity="1"/>
<stop offset="0.273438" stop-color="rgb(38.38501%, 49.107361%, 37.138367%)" stop-opacity="1"/>
<stop offset="0.28125" stop-color="rgb(38.076782%, 48.893738%, 36.91864%)" stop-opacity="1"/>
<stop offset="0.289063" stop-color="rgb(37.768555%, 48.680115%, 36.698914%)" stop-opacity="1"/>
<stop offset="0.296875" stop-color="rgb(37.460327%, 48.468018%, 36.480713%)" stop-opacity="1"/>
<stop offset="0.304688" stop-color="rgb(37.1521%, 48.254395%, 36.260986%)" stop-opacity="1"/>
<stop offset="0.3125" stop-color="rgb(36.843872%, 48.040771%, 36.04126%)" stop-opacity="1"/>
<stop offset="0.320313" stop-color="rgb(36.535645%, 47.827148%, 35.823059%)" stop-opacity="1"/>
<stop offset="0.328125" stop-color="rgb(36.227417%, 47.613525%, 35.603333%)" stop-opacity="1"/>
<stop offset="0.335938" stop-color="rgb(35.919189%, 47.399902%, 35.383606%)" stop-opacity="1"/>
<stop offset="0.34375" stop-color="rgb(35.610962%, 47.186279%, 35.163879%)" stop-opacity="1"/>
<stop offset="0.351563" stop-color="rgb(35.302734%, 46.974182%, 34.945679%)" stop-opacity="1"/>
<stop offset="0.359375" stop-color="rgb(34.994507%, 46.760559%, 34.725952%)" stop-opacity="1"/>
<stop offset="0.367188" stop-color="rgb(34.686279%, 46.546936%, 34.506226%)" stop-opacity="1"/>
<stop offset="0.375" stop-color="rgb(34.378052%, 46.333313%, 34.286499%)" stop-opacity="1"/>
<stop offset="0.382813" stop-color="rgb(34.069824%, 46.11969%, 34.068298%)" stop-opacity="1"/>
<stop offset="0.390625" stop-color="rgb(33.761597%, 45.906067%, 33.848572%)" stop-opacity="1"/>
<stop offset="0.398438" stop-color="rgb(33.453369%, 45.69397%, 33.628845%)" stop-opacity="1"/>
<stop offset="0.40625" stop-color="rgb(33.145142%, 45.480347%, 33.409119%)" stop-opacity="1"/>
<stop offset="0.414063" stop-color="rgb(32.836914%, 45.266724%, 33.190918%)" stop-opacity="1"/>
<stop offset="0.421875" stop-color="rgb(32.528687%, 45.053101%, 32.971191%)" stop-opacity="1"/>
<stop offset="0.429688" stop-color="rgb(32.220459%, 44.839478%, 32.751465%)" stop-opacity="1"/>
<stop offset="0.4375" stop-color="rgb(31.912231%, 44.625854%, 32.533264%)" stop-opacity="1"/>
<stop offset="0.445313" stop-color="rgb(31.604004%, 44.412231%, 32.313538%)" stop-opacity="1"/>
<stop offset="0.453125" stop-color="rgb(31.295776%, 44.200134%, 32.093811%)" stop-opacity="1"/>
<stop offset="0.460938" stop-color="rgb(30.987549%, 43.986511%, 31.874084%)" stop-opacity="1"/>
<stop offset="0.46875" stop-color="rgb(30.679321%, 43.772888%, 31.655884%)" stop-opacity="1"/>
<stop offset="0.476563" stop-color="rgb(30.371094%, 43.559265%, 31.436157%)" stop-opacity="1"/>
<stop offset="0.484375" stop-color="rgb(30.062866%, 43.345642%, 31.216431%)" stop-opacity="1"/>
<stop offset="0.492188" stop-color="rgb(29.754639%, 43.132019%, 30.996704%)" stop-opacity="1"/>
<stop offset="0.5" stop-color="rgb(29.446411%, 42.918396%, 30.778503%)" stop-opacity="1"/>
<stop offset="0.507812" stop-color="rgb(29.138184%, 42.706299%, 30.558777%)" stop-opacity="1"/>
<stop offset="0.515625" stop-color="rgb(28.829956%, 42.492676%, 30.33905%)" stop-opacity="1"/>
<stop offset="0.523438" stop-color="rgb(28.52478%, 42.23938%, 30.110168%)" stop-opacity="1"/>
<stop offset="0.53125" stop-color="rgb(28.225708%, 41.941833%, 29.872131%)" stop-opacity="1"/>
<stop offset="0.539062" stop-color="rgb(27.926636%, 41.636658%, 29.632568%)" stop-opacity="1"/>
<stop offset="0.546875" stop-color="rgb(27.627563%, 41.331482%, 29.391479%)" stop-opacity="1"/>
<stop offset="0.554688" stop-color="rgb(27.330017%, 41.026306%, 29.151917%)" stop-opacity="1"/>
<stop offset="0.5625" stop-color="rgb(27.030945%, 40.722656%, 28.910828%)" stop-opacity="1"/>
<stop offset="0.570312" stop-color="rgb(26.731873%, 40.41748%, 28.671265%)" stop-opacity="1"/>
<stop offset="0.578125" stop-color="rgb(26.434326%, 40.112305%, 28.431702%)" stop-opacity="1"/>
<stop offset="0.585938" stop-color="rgb(26.135254%, 39.807129%, 28.190613%)" stop-opacity="1"/>
<stop offset="0.59375" stop-color="rgb(25.836182%, 39.501953%, 27.95105%)" stop-opacity="1"/>
<stop offset="0.601562" stop-color="rgb(25.537109%, 39.196777%, 27.709961%)" stop-opacity="1"/>
<stop offset="0.609375" stop-color="rgb(25.239563%, 38.891602%, 27.470398%)" stop-opacity="1"/>
<stop offset="0.617188" stop-color="rgb(24.940491%, 38.586426%, 27.230835%)" stop-opacity="1"/>
<stop offset="0.625" stop-color="rgb(24.641418%, 38.28125%, 26.989746%)" stop-opacity="1"/>
<stop offset="0.632812" stop-color="rgb(24.343872%, 37.976074%, 26.750183%)" stop-opacity="1"/>
<stop offset="0.640625" stop-color="rgb(24.0448%, 37.670898%, 26.509094%)" stop-opacity="1"/>
<stop offset="0.648438" stop-color="rgb(23.745728%, 37.365723%, 26.269531%)" stop-opacity="1"/>
<stop offset="0.65625" stop-color="rgb(23.446655%, 37.060547%, 26.028442%)" stop-opacity="1"/>
<stop offset="0.664062" stop-color="rgb(23.149109%, 36.755371%, 25.788879%)" stop-opacity="1"/>
<stop offset="0.671875" stop-color="rgb(22.850037%, 36.450195%, 25.549316%)" stop-opacity="1"/>
<stop offset="0.679688" stop-color="rgb(22.550964%, 36.14502%, 25.308228%)" stop-opacity="1"/>
<stop offset="0.6875" stop-color="rgb(22.253418%, 35.839844%, 25.068665%)" stop-opacity="1"/>
<stop offset="0.695312" stop-color="rgb(21.954346%, 35.534668%, 24.827576%)" stop-opacity="1"/>
<stop offset="0.703125" stop-color="rgb(21.655273%, 35.229492%, 24.588013%)" stop-opacity="1"/>
<stop offset="0.710938" stop-color="rgb(21.356201%, 34.924316%, 24.346924%)" stop-opacity="1"/>
<stop offset="0.71875" stop-color="rgb(21.058655%, 34.619141%, 24.107361%)" stop-opacity="1"/>
<stop offset="0.726562" stop-color="rgb(20.759583%, 34.313965%, 23.867798%)" stop-opacity="1"/>
<stop offset="0.734375" stop-color="rgb(20.46051%, 34.008789%, 23.626709%)" stop-opacity="1"/>
<stop offset="0.742188" stop-color="rgb(20.162964%, 33.703613%, 23.387146%)" stop-opacity="1"/>
<stop offset="0.75" stop-color="rgb(19.863892%, 33.398438%, 23.146057%)" stop-opacity="1"/>
<stop offset="0.757812" stop-color="rgb(19.564819%, 33.093262%, 22.906494%)" stop-opacity="1"/>
<stop offset="0.765625" stop-color="rgb(19.265747%, 32.788086%, 22.665405%)" stop-opacity="1"/>
<stop offset="0.773438" stop-color="rgb(18.968201%, 32.48291%, 22.425842%)" stop-opacity="1"/>
<stop offset="0.78125" stop-color="rgb(18.669128%, 32.177734%, 22.186279%)" stop-opacity="1"/>
<stop offset="0.789062" stop-color="rgb(18.370056%, 31.872559%, 21.94519%)" stop-opacity="1"/>
<stop offset="0.796875" stop-color="rgb(18.07251%, 31.567383%, 21.705627%)" stop-opacity="1"/>
<stop offset="0.804688" stop-color="rgb(17.773438%, 31.262207%, 21.464539%)" stop-opacity="1"/>
<stop offset="0.8125" stop-color="rgb(17.474365%, 30.957031%, 21.224976%)" stop-opacity="1"/>
<stop offset="0.820312" stop-color="rgb(17.175293%, 30.653381%, 20.983887%)" stop-opacity="1"/>
<stop offset="0.828125" stop-color="rgb(16.877747%, 30.348206%, 20.744324%)" stop-opacity="1"/>
<stop offset="0.835938" stop-color="rgb(16.578674%, 30.04303%, 20.504761%)" stop-opacity="1"/>
<stop offset="0.84375" stop-color="rgb(16.279602%, 29.737854%, 20.263672%)" stop-opacity="1"/>
<stop offset="0.851562" stop-color="rgb(15.982056%, 29.432678%, 20.024109%)" stop-opacity="1"/>
<stop offset="0.859375" stop-color="rgb(15.682983%, 29.127502%, 19.78302%)" stop-opacity="1"/>
<stop offset="0.867188" stop-color="rgb(15.383911%, 28.822327%, 19.543457%)" stop-opacity="1"/>
<stop offset="0.875" stop-color="rgb(15.084839%, 28.517151%, 19.303894%)" stop-opacity="1"/>
<stop offset="0.882812" stop-color="rgb(14.787292%, 28.211975%, 19.062805%)" stop-opacity="1"/>
<stop offset="0.890625" stop-color="rgb(14.48822%, 27.906799%, 18.823242%)" stop-opacity="1"/>
<stop offset="0.898438" stop-color="rgb(14.189148%, 27.601624%, 18.582153%)" stop-opacity="1"/>
<stop offset="0.90625" stop-color="rgb(13.890076%, 27.296448%, 18.34259%)" stop-opacity="1"/>
<stop offset="0.914062" stop-color="rgb(13.592529%, 26.991272%, 18.101501%)" stop-opacity="1"/>
<stop offset="0.921875" stop-color="rgb(13.293457%, 26.686096%, 17.861938%)" stop-opacity="1"/>
<stop offset="0.929688" stop-color="rgb(12.994385%, 26.38092%, 17.622375%)" stop-opacity="1"/>
<stop offset="0.9375" stop-color="rgb(12.696838%, 26.075745%, 17.381287%)" stop-opacity="1"/>
<stop offset="0.945312" stop-color="rgb(12.397766%, 25.770569%, 17.141724%)" stop-opacity="1"/>
<stop offset="0.953125" stop-color="rgb(12.098694%, 25.465393%, 16.900635%)" stop-opacity="1"/>
<stop offset="0.960938" stop-color="rgb(11.799622%, 25.160217%, 16.661072%)" stop-opacity="1"/>
<stop offset="0.96875" stop-color="rgb(11.502075%, 24.855042%, 16.419983%)" stop-opacity="1"/>
<stop offset="0.976562" stop-color="rgb(11.203003%, 24.549866%, 16.18042%)" stop-opacity="1"/>
<stop offset="0.984375" stop-color="rgb(10.903931%, 24.24469%, 15.940857%)" stop-opacity="1"/>
<stop offset="1" stop-color="rgb(10.671997%, 24.006653%, 15.753174%)" stop-opacity="1"/>
</linearGradient>
</defs>
<rect x="-250" y="-250" width="3000" height="3000" fill="rgb(100%, 100%, 100%)" fill-opacity="1"/>
<g clip-path="url(#clip-0)">
<path fill-rule="nonzero" fill="url(#linear-pattern-0)" d="M 32.527344 685.921875 L 32.527344 1814.078125 L 2467.46875 1814.078125 L 2467.46875 685.921875 Z M 32.527344 685.921875 "/>
</g>
</svg>
